<svg width="17" height="21" viewBox="0 0 17 21" fill="none" xmlns="http://www.w3.org/2000/svg">
<path d="M16.7052 20.2554C16.6696 20.3991 16.5991 20.5322 16.4997 20.6431C16.4003 20.7539 16.275 20.8393 16.1346 20.8916C15.9749 20.9464 15.8042 20.9626 15.6367 20.9391C15.4693 20.9156 15.31 20.8529 15.1721 20.7564C13.9662 19.9692 12.7467 19.1634 11.5657 18.3844L10.2015 17.485L8.41444 16.3069C5.96566 14.6946 3.43322 13.0274 0.949019 11.3787C0.739725 11.2426 0.566767 11.0588 0.444792 10.8428C0.218681 10.4057 0.389019 9.94186 0.903045 9.6029C3.11089 8.14749 5.31949 6.69257 7.52884 5.23815L10.8798 3.03124C12.2963 2.09764 13.713 1.16329 15.1299 0.228196C15.3636 0.0735866 15.5693 0 15.7751 0C15.8465 0.000313559 15.9176 0.0090458 15.9869 0.0260143C16.614 0.174678 16.7459 0.689797 16.7459 1.09342C16.7459 3.38432 16.7459 5.67547 16.7459 7.96686V12.0707C16.7459 14.6436 16.7459 17.2162 16.7459 19.7886V19.8042C16.7509 19.9556 16.7372 20.1072 16.7052 20.2554ZM14.7817 3.19477C14.7817 3.15438 14.7705 3.11475 14.7495 3.08013C14.7284 3.0455 14.6981 3.01717 14.662 2.99817C14.6259 2.97916 14.5852 2.97019 14.5443 2.97222C14.5033 2.97425 14.4638 2.9872 14.4297 3.00969L3.36916 10.2942C3.33806 10.3145 3.31256 10.3421 3.29492 10.3746C3.27727 10.407 3.26804 10.4432 3.26804 10.48C3.26804 10.5168 3.27727 10.553 3.29492 10.5855C3.31256 10.6179 3.33806 10.6455 3.36916 10.6658L14.4297 17.9503C14.467 17.9747 14.5109 17.9877 14.5556 17.9875C14.5927 17.9876 14.6292 17.9786 14.6619 17.9615C14.6981 17.9425 14.7284 17.9141 14.7495 17.8794C14.7706 17.8447 14.7818 17.805 14.7817 17.7645V3.19477Z" fill="#D2D3DF"/>
</svg>
