<svg width="17" height="21" viewBox="0 0 17 21" fill="none" xmlns="http://www.w3.org/2000/svg">
<path d="M0.0446424 20.2554C0.0802099 20.3991 0.150747 20.5322 0.250156 20.6431C0.349565 20.7539 0.474855 20.8393 0.615196 20.8916C0.774949 20.9464 0.945648 20.9626 1.11307 20.9391C1.28049 20.9156 1.43978 20.8529 1.57767 20.7564C2.7836 19.9692 4.00309 19.1634 5.18414 18.3844L6.54834 17.485L8.33537 16.3069C10.7842 14.6946 13.3166 13.0274 15.8008 11.3787C16.0101 11.2426 16.1831 11.0588 16.305 10.8428C16.5311 10.4057 16.3608 9.94186 15.8468 9.6029C13.6389 8.14749 11.4303 6.69257 9.22097 5.23815L5.87001 3.03124C4.45355 2.09764 3.03684 1.16329 1.61988 0.228196C1.38623 0.0735866 1.18047 0 0.974711 0C0.903315 0.000313559 0.832214 0.0090458 0.762921 0.0260143C0.13584 0.174678 0.00394181 0.689797 0.00394181 1.09342C0.00394181 3.38432 0.00394181 5.67547 0.00394181 7.96686V12.0707C0.00394181 14.6436 0.00394181 17.2162 0.00394181 19.7886V19.8042C-0.00107819 19.9556 0.0125893 20.1072 0.0446424 20.2554ZM1.96809 3.19477C1.96812 3.15438 1.97928 3.11475 2.00036 3.08013C2.02145 3.0455 2.05168 3.01717 2.08782 2.99817C2.12396 2.97916 2.16466 2.97019 2.20556 2.97222C2.24647 2.97425 2.28605 2.9872 2.32007 3.00969L13.3807 10.2942C13.4118 10.3145 13.4373 10.3421 13.4549 10.3746C13.4725 10.407 13.4818 10.4432 13.4818 10.48C13.4818 10.5168 13.4725 10.553 13.4549 10.5855C13.4373 10.6179 13.4118 10.6455 13.3807 10.6658L2.32007 17.9503C2.28277 17.9747 2.23896 17.9877 2.1942 17.9875C2.15715 17.9876 2.12066 17.9786 2.08793 17.9615C2.05171 17.9425 2.02142 17.9141 2.00031 17.8794C1.9792 17.8447 1.96806 17.805 1.96809 17.7645V3.19477Z" fill="#D2D3DF"/>
</svg>
