<svg width="24" height="21" viewBox="0 0 24 21" fill="none" xmlns="http://www.w3.org/2000/svg">
<path d="M23.9044 20.2554C23.8688 20.3991 23.7983 20.5322 23.6989 20.6431C23.5995 20.7539 23.4742 20.8393 23.3338 20.8916C23.1741 20.9464 23.0034 20.9626 22.836 20.9391C22.6685 20.9156 22.5093 20.8529 22.3714 20.7564C21.1654 19.9692 19.9459 19.1634 18.7649 18.3844L17.4007 17.485L15.6137 16.3069C13.1649 14.6946 10.6324 13.0274 8.14824 11.3787C7.93894 11.2426 7.76599 11.0588 7.64401 10.8428C7.4179 10.4057 7.58824 9.94186 8.10226 9.6029C10.3101 8.14749 12.5187 6.69257 14.7281 5.23815L18.079 3.03124C19.4955 2.09764 20.9122 1.16329 22.3292 0.228196C22.5628 0.0735866 22.7686 0 22.9743 0C23.0457 0.000313559 23.1168 0.0090458 23.1861 0.0260143C23.8132 0.174678 23.9451 0.689797 23.9451 1.09342C23.9451 3.38432 23.9451 5.67547 23.9451 7.96686V12.0707C23.9451 14.6436 23.9451 17.2162 23.9451 19.7886V19.8042C23.9501 19.9556 23.9364 20.1072 23.9044 20.2554ZM21.9809 3.19477C21.9809 3.15438 21.9698 3.11475 21.9487 3.08013C21.9276 3.0455 21.8974 3.01717 21.8612 2.99817C21.8251 2.97916 21.7844 2.97019 21.7435 2.97222C21.7026 2.97425 21.663 2.9872 21.629 3.00969L10.5684 10.2942C10.5373 10.3145 10.5118 10.3421 10.4941 10.3746C10.4765 10.407 10.4673 10.4432 10.4673 10.48C10.4673 10.5168 10.4765 10.553 10.4941 10.5855C10.5118 10.6179 10.5373 10.6455 10.5684 10.6658L21.629 17.9503C21.6663 17.9747 21.7101 17.9877 21.7548 17.9875C21.7919 17.9876 21.8284 17.9786 21.8611 17.9615C21.8973 17.9425 21.9276 17.9141 21.9487 17.8794C21.9698 17.8447 21.981 17.805 21.9809 17.7645V3.19477Z" fill="#D2D3DF"/>
<path d="M5.8843 17.667C5.87937 17.8895 5.79354 18.1027 5.64246 18.268C5.49138 18.4332 5.2851 18.5394 5.06126 18.5672C4.54648 18.6266 4.11461 18.3523 3.98723 17.8855C3.95325 17.723 3.93983 17.557 3.94729 17.3912C3.94729 12.7827 3.94729 8.17412 3.94729 3.56555V3.53285C3.94729 3.42432 3.94729 3.32249 3.95633 3.22288C3.98024 3.00592 4.07969 2.80384 4.23774 2.65109C4.39579 2.49833 4.60266 2.40435 4.82309 2.38517C4.85475 2.38517 4.88565 2.38517 4.91579 2.38517C5.15877 2.37815 5.39518 2.46358 5.57604 2.62377C5.77878 2.8096 5.89033 3.09578 5.89108 3.42878C5.89108 5.09183 5.89108 6.75438 5.89108 8.41643V13.8516C5.89108 14.1984 5.89108 14.5453 5.89108 14.8922C5.89033 15.8005 5.89485 16.7423 5.8843 17.667Z" fill="#D2D3DF"/>
<path d="M1.93899 17.667C1.93406 17.8895 1.84823 18.1027 1.69715 18.268C1.54606 18.4332 1.33979 18.5394 1.11595 18.5672C0.601168 18.6266 0.169298 18.3523 0.0419222 17.8855C0.00793898 17.723 -0.00548089 17.557 0.00197387 17.3912C0.00197387 12.7827 0.00197387 8.17412 0.00197387 3.56555V3.53285C0.00197387 3.42432 0.00197816 3.32249 0.0110224 3.22288C0.0349278 3.00592 0.134378 2.80384 0.292427 2.65109C0.450476 2.49833 0.657344 2.40435 0.877778 2.38517C0.909433 2.38517 0.940334 2.38517 0.970482 2.38517C1.21346 2.37815 1.44987 2.46358 1.63072 2.62377C1.83347 2.8096 1.94502 3.09578 1.94577 3.42878C1.94577 5.09183 1.94577 6.75438 1.94577 8.41643V13.8516C1.94577 14.1984 1.94577 14.5453 1.94577 14.8922C1.94502 15.8005 1.94954 16.7423 1.93899 17.667Z" fill="#D2D3DF"/>
</svg>
