<svg width="33" height="32" viewBox="0 0 33 32" fill="none" xmlns="http://www.w3.org/2000/svg">
<mask id="path-1-inside-1_1_209" fill="white">
<rect x="12.375" y="31.125" width="12.375" height="12.375" rx="2" transform="rotate(-180 12.375 31.125)"/>
</mask>
<rect x="12.375" y="31.125" width="12.375" height="12.375" rx="2" transform="rotate(-180 12.375 31.125)" stroke="white" stroke-width="5" mask="url(#path-1-inside-1_1_209)"/>
<mask id="path-2-inside-2_1_209" fill="white">
<rect x="33" y="12.5625" width="12.375" height="12.375" rx="2" transform="rotate(-180 33 12.5625)"/>
</mask>
<rect x="33" y="12.5625" width="12.375" height="12.375" rx="2" transform="rotate(-180 33 12.5625)" stroke="white" stroke-width="5" mask="url(#path-2-inside-2_1_209)"/>
<mask id="path-3-inside-3_1_209" fill="white">
<rect x="12.375" y="12.5625" width="12.375" height="12.375" rx="2" transform="rotate(-180 12.375 12.5625)"/>
</mask>
<rect x="12.375" y="12.5625" width="12.375" height="12.375" rx="2" transform="rotate(-180 12.375 12.5625)" stroke="white" stroke-width="5" mask="url(#path-3-inside-3_1_209)"/>
<path d="M21.6562 6.375H11.8594" stroke="white" stroke-width="2.5"/>
<path d="M26.8125 11.5312C26.2969 16.6875 22.5844 24.9375 11.8594 24.9375" stroke="white" stroke-width="2.5"/>
</svg>
