<svg width="30" height="31" viewBox="0 0 30 31" fill="none" xmlns="http://www.w3.org/2000/svg">
<path d="M5.10967 4.13073C5.22925 4.1803 5.34203 4.24489 5.44531 4.32292C7.95288 6.81862 10.4583 9.31869 12.9615 11.8231C13.5915 12.4522 13.6843 13.2491 13.209 13.8857C12.6464 14.6432 11.603 14.7154 10.9026 14.0235C9.72793 12.8619 8.56539 11.6881 7.39818 10.5181C6.02314 9.14306 4.6481 7.76802 3.27306 6.39298C3.20275 6.32267 3.12493 6.25985 2.9918 6.14079C2.9918 6.98456 3.00212 7.75239 2.9918 8.52023C2.99402 8.86327 2.87489 9.19605 2.65546 9.45974C2.43603 9.72343 2.13044 9.90105 1.79271 9.96121C1.58265 10.0054 1.3655 10.0033 1.15634 9.95503C0.947181 9.9068 0.751033 9.8136 0.581524 9.68192C0.412015 9.55024 0.273211 9.38323 0.174758 9.19249C0.0763054 9.00175 0.020565 8.79187 0.0114088 8.57742C0.0114088 8.53054 0.00671959 8.48366 0.00671959 8.43679C0.00671959 6.48017 0.00109482 4.52261 0.00671959 2.566C0.00671959 1.65378 0.619862 1.01252 1.50676 1.00689C3.51119 0.993765 5.515 0.993765 7.51818 1.00689C8.30664 1.00689 8.88791 1.56191 8.98822 2.34193C9.02595 2.68873 8.93983 3.03769 8.7451 3.32712C8.55037 3.61656 8.25958 3.82781 7.92413 3.92354C7.73119 3.9704 7.5329 3.99152 7.33442 3.98635C6.63222 3.99291 5.92814 3.98635 5.22874 3.98635L5.10967 4.13073Z" fill="white"/>
<path d="M2.99032 25.8596C3.16095 25.6974 3.2547 25.6121 3.3447 25.5221C5.84477 23.0177 8.34484 20.5132 10.8449 18.0088C11.4337 17.42 12.1575 17.3122 12.7903 17.7078C13.6416 18.2422 13.7541 19.3513 13.0181 20.0938C11.8462 21.276 10.6649 22.447 9.48644 23.6227L5.40632 27.6953C5.3332 27.7684 5.2657 27.8472 5.15601 27.9672C5.30226 27.9784 5.39976 27.9915 5.49726 27.9915C6.17697 27.9915 6.85668 27.9812 7.53545 27.999C7.92346 28.0095 8.29203 28.1712 8.56251 28.4496C8.833 28.7279 8.98398 29.101 8.98325 29.4892C8.98251 29.8773 8.83012 30.2498 8.55858 30.5272C8.28705 30.8046 7.91787 30.9648 7.52982 30.9738C5.51539 30.9876 3.50002 30.9876 1.48371 30.9738C1.28901 30.9769 1.09569 30.9407 0.915257 30.8675C0.734822 30.7943 0.570969 30.6855 0.433453 30.5476C0.295937 30.4098 0.187571 30.2456 0.114808 30.065C0.0420465 29.8844 0.00637722 29.691 0.00992298 29.4963C-0.00320244 27.4806 -0.00320244 25.4652 0.00992298 23.4502C0.00992298 23.0556 0.166679 22.6771 0.445706 22.3981C0.724733 22.1191 1.10317 21.9623 1.49778 21.9623C1.89238 21.9623 2.27082 22.1191 2.54985 22.3981C2.82888 22.6771 2.98563 23.0556 2.98563 23.4502C3.00344 24.2227 2.99032 24.9924 2.99032 25.8596Z" fill="white"/>
<path d="M24.8965 27.835C24.7821 27.7759 24.6424 27.7412 24.5553 27.655C22.0552 25.168 19.5573 22.678 17.0616 20.1848C16.6257 19.7507 16.3875 19.2632 16.5385 18.6369C16.5955 18.3971 16.7108 18.175 16.8742 17.9903C17.0375 17.8056 17.2439 17.6641 17.475 17.5781C17.7061 17.4922 17.9548 17.4645 18.1991 17.4976C18.4434 17.5307 18.6758 17.6235 18.8757 17.7678C19.0057 17.8678 19.1274 17.9782 19.2395 18.0978C21.7152 20.5767 24.1893 23.0573 26.6619 25.5399C26.741 25.6423 26.8066 25.7545 26.8569 25.8737L26.9863 25.7799C26.9928 25.6805 27.0041 25.5812 27.0041 25.4827C27.0041 24.7908 26.9919 24.0989 27.0144 23.4089C27.0295 23.0232 27.1949 22.6587 27.4752 22.3933C27.7555 22.1279 28.1285 21.9826 28.5144 21.9886C29.302 21.9989 29.977 22.613 29.9845 23.4005C30.0032 25.4512 30.0032 27.5015 29.9845 29.5516C29.9815 29.9262 29.8317 30.2848 29.5671 30.55C29.3025 30.8153 28.9444 30.9661 28.5697 30.9701C26.5191 30.9888 24.4684 30.9888 22.4177 30.9701C21.6133 30.9635 20.988 30.2707 20.9973 29.4747C20.9977 29.0957 21.1439 28.7313 21.4058 28.4572C21.6676 28.1831 22.025 28.0204 22.4036 28.0028C23.0824 27.9794 23.7621 27.9944 24.4418 27.9925H24.7821L24.8965 27.835Z" fill="white"/>
<path d="M26.8541 6.09569C26.7913 6.20913 26.751 6.34414 26.6666 6.43226C24.1709 8.94108 21.6727 11.4471 19.172 13.9503C18.7548 14.3684 18.2805 14.5841 17.6823 14.4528C17.4385 14.3998 17.2117 14.2868 17.0225 14.1241C16.8333 13.9614 16.6878 13.754 16.599 13.5208C16.5101 13.2876 16.4809 13.036 16.5139 12.7886C16.5469 12.5413 16.6411 12.3061 16.7879 12.1043C16.8955 11.9654 17.014 11.8353 17.1423 11.7152C19.613 9.24766 22.0852 6.78196 24.5591 4.31814C24.6463 4.23189 24.7859 4.1972 24.9003 4.13908L24.7822 3.97876C24.0153 3.97876 23.2475 3.98907 22.4796 3.97876C22.1366 3.98071 21.8039 3.86164 21.54 3.64249C21.2761 3.42334 21.0979 3.11815 21.0368 2.7806C20.9931 2.5706 20.9956 2.35361 21.044 2.14465C21.0925 1.9357 21.1857 1.73975 21.3173 1.57036C21.4489 1.40097 21.6157 1.26217 21.8062 1.16358C21.9967 1.06498 22.2063 1.00893 22.4206 0.999304C22.4674 0.999304 22.5143 0.999304 22.5612 0.999304C24.5178 0.999304 26.4744 0.993678 28.432 0.999304C29.3433 0.999304 29.9855 1.61432 29.9911 2.49934C30.003 4.50315 30.003 6.50664 29.9911 8.50982C29.9911 9.29734 29.437 9.87955 28.657 9.9808C28.3091 10.0196 27.9587 9.93385 27.668 9.73867C27.3774 9.54349 27.1654 9.25158 27.0698 8.91483C27.023 8.72186 27.0016 8.52363 27.006 8.32513C26.9985 7.64636 27.006 6.96666 27.0013 6.28695C26.9989 6.26404 26.9942 6.24142 26.9873 6.21945L26.8541 6.09569Z" fill="white"/>
</svg>
