<svg width="40" height="46" viewBox="0 0 40 46" fill="none" xmlns="http://www.w3.org/2000/svg">
<path d="M19.2449 38.8804C19.0335 39.1008 18.8673 39.4155 18.8538 39.7959C18.8403 40.1735 18.9819 40.4858 19.15 40.7009C19.4686 41.1085 19.9632 41.2956 20.4297 41.2637C20.5611 41.2548 20.7001 41.2465 20.8449 41.238C21.4285 41.2035 22.1056 41.1636 22.7532 41.0452L22.7548 41.0449C26.5894 40.3387 29.8185 38.8614 32.3846 36.5731C34.9507 34.2849 36.7888 31.2437 37.9324 27.5113L37.9331 27.5092C38.4078 25.95 38.5488 24.3663 38.5867 22.8531C38.5906 22.7023 38.6198 22.6246 38.6357 22.593C38.6438 22.5922 38.6546 22.5916 38.6683 22.5918C38.6813 22.5919 38.6908 22.5929 38.6971 22.5939C38.7027 22.6029 38.712 22.6204 38.7214 22.6496C38.7363 22.6958 38.7513 22.7713 38.7497 22.8805L38.7497 22.8836C38.6988 27.2797 37.1051 31.5182 34.247 34.8588C31.389 38.1993 27.4483 40.4297 23.1132 41.1604C22.4309 41.2752 21.7548 41.3336 21.0123 41.3978C20.757 41.4198 20.4939 41.4426 20.2199 41.4685C19.1309 41.5716 18.4343 42.9321 19.3033 43.8641C19.3732 43.9391 19.3998 43.9934 19.4092 44.0182C19.4021 44.0261 19.3905 44.0374 19.373 44.051C19.1699 43.9069 19.0357 43.809 18.9187 43.6979C18.3004 43.1056 17.6982 42.4964 17.0826 41.8736C16.9617 41.7513 16.8403 41.6285 16.7182 41.5052L16.7179 41.5048C16.6381 41.4244 16.602 41.3673 16.5872 41.3387C16.6021 41.3082 16.6381 41.2507 16.7206 41.1663C17.5171 40.3627 18.3168 39.5622 19.1196 38.7649L19.1202 38.7643C19.2543 38.631 19.348 38.6066 19.3727 38.6024C19.3763 38.6053 19.3811 38.6095 19.387 38.6155C19.3947 38.6232 19.4002 38.6296 19.4042 38.6346C19.404 38.6354 19.4038 38.6362 19.4036 38.637C19.4006 38.6479 19.3948 38.665 19.3838 38.688C19.3619 38.7334 19.3202 38.7999 19.2449 38.8804ZM19.413 38.6473C19.413 38.6474 19.4128 38.647 19.4125 38.6463L19.413 38.6473ZM16.5774 41.3648C16.5772 41.3648 16.5775 41.3626 16.579 41.3583C16.5783 41.3626 16.5776 41.3648 16.5774 41.3648ZM38.7075 22.5963C38.7075 22.5963 38.7072 22.5962 38.7066 22.5959L38.7075 22.5963ZM38.6158 22.5965C38.6158 22.5965 38.6161 22.5963 38.6167 22.5962L38.6158 22.5965Z" stroke="#4F5763" stroke-width="2.5"/>
<path d="M20.5952 6.69601C20.6031 6.66694 20.6315 6.59316 20.7316 6.48749C20.8099 6.40514 20.8833 6.31766 20.9266 6.26602C20.933 6.25841 20.9387 6.25158 20.9437 6.24566L20.9437 6.24562C21.213 5.92637 21.3223 5.49547 21.2277 5.0791C21.0761 4.41208 20.4509 3.96938 19.7775 4.03858L19.9053 5.28203L19.7775 4.03858C19.5456 4.06241 19.2896 4.08292 19.019 4.10461C18.3049 4.16184 17.4882 4.2273 16.739 4.38364L16.7387 4.38371C13.015 5.16174 9.88524 6.67346 7.40386 8.95484C4.92278 11.236 3.1507 14.2307 2.05592 17.8813C1.59189 19.4255 1.45335 20.9943 1.41312 22.4888L1.41305 22.4917C1.4094 22.64 1.38063 22.7163 1.36496 22.7472C1.35676 22.7481 1.34576 22.7487 1.33161 22.7485C1.31459 22.7482 1.30289 22.7467 1.2956 22.7453C1.29495 22.7442 1.29426 22.743 1.29351 22.7417C1.28911 22.7338 1.28275 22.7205 1.27619 22.7007C1.26301 22.6607 1.24901 22.5938 1.25006 22.4956L1.25006 22.4947C1.33865 13.6087 7.66681 5.97172 16.3625 4.2828L16.3627 4.28275C17.1691 4.12598 17.9696 4.04492 18.8374 3.95705C19.1539 3.92499 19.4795 3.89203 19.8175 3.85415C20.3898 3.79003 20.8035 3.40562 20.979 2.9713C21.157 2.53077 21.1289 1.92254 20.6905 1.46827C20.6265 1.39955 20.602 1.34983 20.5933 1.3273C20.6006 1.31912 20.6131 1.30649 20.6329 1.29117C20.8288 1.4275 20.9505 1.5143 21.0576 1.61521C21.6263 2.16041 22.1793 2.71703 22.7432 3.28459C22.9242 3.46672 23.1062 3.64996 23.2903 3.83432C23.3695 3.91448 23.4049 3.9711 23.4192 3.99897C23.4047 4.02944 23.369 4.0877 23.2853 4.17372C22.4792 4.98759 21.6693 5.79754 20.8554 6.60358L20.8545 6.6045C20.7273 6.73069 20.6445 6.73729 20.6404 6.73753C20.6361 6.73514 20.6262 6.72871 20.6116 6.71411C20.6043 6.70682 20.599 6.70075 20.5952 6.69601ZM19.953 5.74702L19.9287 5.51034L19.953 5.74702ZM1.28599 22.7428C1.28601 22.7428 1.28626 22.7429 1.28674 22.7431L1.28599 22.7428ZM23.4284 3.97392C23.4286 3.97391 23.4282 3.97603 23.4269 3.98028C23.4275 3.97604 23.4282 3.97392 23.4284 3.97392Z" stroke="#4F5763" stroke-width="2.5"/>
<path d="M29.1384 28.2062L29.1385 28.2061C29.3318 28.1107 29.3759 28.0433 29.3829 28.0322L29.3831 28.0318C29.3884 28.0235 29.4257 27.9652 29.4233 27.7734C29.408 26.5524 29.411 25.3261 29.4139 24.1105C29.415 23.6279 29.4161 23.147 29.4161 22.6688C29.4161 22.2352 29.4155 21.8001 29.4149 21.3639C29.4131 20.1036 29.4113 18.8346 29.4245 17.5703L29.4245 17.5678C29.4269 17.3767 29.3899 17.3196 29.3851 17.3123L29.3849 17.3119C29.3783 17.3015 29.3341 17.2339 29.1385 17.1373C26.1743 15.6753 23.2188 14.1983 20.272 12.7064L20.2471 12.6938L20.2228 12.6801C20.1543 12.6415 20.0769 12.6212 19.9983 12.6212C19.9196 12.6212 19.8422 12.6415 19.7737 12.6801L19.7486 12.6943L19.7229 12.7072C16.7489 14.2072 13.7695 15.6977 10.7845 17.1788C10.7075 17.2171 10.6627 17.2491 10.6384 17.2697C10.6155 17.289 10.6084 17.3001 10.6068 17.3027C10.6053 17.305 10.5997 17.3139 10.5935 17.3379C10.5868 17.3637 10.5781 17.4128 10.578 17.4938C10.5851 20.9457 10.5851 24.3985 10.578 27.852L29.1384 28.2062ZM29.1384 28.2062C26.1776 29.6689 23.2222 31.1462 20.2724 32.638L20.2471 32.6508M29.1384 28.2062L20.2471 32.6508M20.2471 32.6508L20.2224 32.6648M20.2471 32.6508L20.2224 32.6648M20.2224 32.6648C20.1542 32.7032 20.0772 32.7235 19.9988 32.7235C19.9205 32.7235 19.8435 32.7032 19.7753 32.6648L19.7507 32.6509M20.2224 32.6648L19.7507 32.6509M19.7507 32.6509L19.7256 32.6382M19.7507 32.6509L19.7256 32.6382M19.7256 32.6382C16.7516 31.1331 13.7713 29.6421 10.7847 28.1654M19.7256 32.6382L10.7847 28.1654M18.4942 30.4168L18.0494 31.585C17.993 31.5635 17.8973 31.5268 17.7948 31.477L17.7881 31.4737L17.7814 31.4703C17.1365 31.147 16.4895 30.8239 15.8416 30.5004C14.4848 29.823 13.124 29.1436 11.7708 28.455L11.768 28.4536C11.4769 28.3045 11.2596 28.0816 11.1196 27.8925C11.0007 27.732 10.7738 27.3776 10.7713 26.9086M18.4942 30.4168L18.6546 23.1033H19.9046C19.9046 23.1006 19.9046 23.0979 19.9046 23.0952C19.9018 22.6023 19.6494 22.2402 19.5329 22.0911C19.3874 21.905 19.1771 21.7043 18.9147 21.5658L18.9063 21.5613L18.8979 21.557C17.2278 20.7074 15.5507 19.8714 13.8787 19.0379C13.5862 18.8921 13.294 18.7464 13.0019 18.6007L12.9987 18.5992C12.9221 18.5612 12.8466 18.5259 12.7709 18.4919L12.7709 18.4919C11.9431 18.1202 10.8426 18.614 10.7629 19.6804L10.7594 19.727V19.7736C10.7594 20.3079 10.759 20.8429 10.7586 21.3785C10.7572 23.2178 10.7557 25.0639 10.7713 26.9086M18.4942 30.4168L18.0494 31.585C18.7053 31.8347 19.7254 31.547 19.8969 30.539L18.4942 30.4168ZM10.7713 26.9086C10.7713 26.9059 10.7713 26.9032 10.7713 26.9005H12.0213M10.7713 26.9086C10.7713 26.9094 10.7713 26.9102 10.7713 26.9111L12.0213 26.9005M12.0213 26.9005C12.0057 25.0614 12.0072 23.2222 12.0086 21.383C12.0087 21.2218 12.0089 21.0605 12.009 20.8992C11.9685 20.879 11.9281 20.8589 11.8876 20.8387C11.8447 20.8175 11.7987 20.7959 11.7466 20.7725L12.0094 20.1875C12.0094 20.0495 12.0094 19.9116 12.0094 19.7736C12.0186 19.6515 12.1471 19.5821 12.2588 19.6322C12.3229 19.661 12.384 19.6896 12.444 19.7193C12.4802 19.7374 12.5165 19.7555 12.5528 19.7736H13.2594C13.2594 19.8911 13.2594 20.0085 13.2594 20.1259C13.2802 20.1363 13.301 20.1467 13.3219 20.157C14.9941 20.9906 16.666 21.824 18.3311 22.6711L12.0213 26.9005ZM11.896 20.8258C11.9332 20.8358 11.9709 20.8438 12.009 20.8497L11.896 20.8258ZM11.896 20.8258L12.0092 20.5972L11.896 20.8258ZM21.1422 21.5223L21.143 21.5219C22.6058 20.8039 24.0604 20.0741 25.5208 19.3414C26.0473 19.0772 26.5745 18.8127 27.1032 18.5482C28.1896 18.0004 29.2442 18.8995 29.2442 19.8805V20.0251C29.2442 20.5368 29.2439 21.0479 29.2435 21.5585C29.2425 23.2911 29.2415 25.0187 29.2524 26.7474M21.1422 21.5223L29.2524 26.7474M21.1422 21.5223C20.8831 21.6496 20.5548 21.8628 20.3271 22.2458C20.1033 22.6222 20.0735 23.0019 20.0754 23.2571L21.3254 23.2473L20.0754 23.2538C20.082 24.5191 20.0812 25.7706 20.0805 27.026C20.0799 28.034 20.0793 29.0445 20.0825 30.0668L21.1422 21.5223ZM29.2524 26.7474C29.2544 27.0374 29.2115 27.4282 28.973 27.8069C28.7367 28.1823 28.4067 28.3888 28.1563 28.5116C26.7601 29.1965 25.3716 29.8926 23.9778 30.5913C23.4357 30.8631 22.8927 31.1353 22.3482 31.4074C22.3217 31.4206 22.296 31.433 22.2711 31.4448L21.7366 30.3148L29.2524 26.7474ZM10.7847 28.1654C10.7079 28.1273 10.663 28.0954 10.6386 28.0747M10.7847 28.1654L10.6386 28.0747M10.6386 28.0747C10.6156 28.0553 10.6082 28.044 10.6064 28.0411M10.6386 28.0747L10.6064 28.0411M10.6064 28.0411C10.6047 28.0385 10.5992 28.0296 10.5931 28.0061M10.6064 28.0411L10.5931 28.0061M10.5931 28.0061C10.5865 27.9807 10.5779 27.9323 10.578 27.8524L10.5931 28.0061ZM13.256 19.8668C13.2497 19.9505 13.2353 20.0294 13.214 20.1032L12.6487 19.8214L13.256 19.8668ZM12.0094 20.1875C12.0093 20.322 12.0093 20.4565 12.0092 20.591L11.8925 20.8248C11.8428 20.8112 11.794 20.7937 11.7466 20.7725L12.0094 20.1875ZM22.5825 30.0649L22.5825 30.061L22.5825 30.0649ZM13.3969 16.0664L13.9563 17.1843L13.3969 16.0664C12.4973 16.5166 12.2368 17.9164 13.2951 18.5505L13.3358 18.5749L13.3783 18.5962C13.7097 18.762 14.0415 18.9282 14.3736 19.0945C15.9763 19.8973 17.5866 20.7039 19.2037 21.4923L19.2744 21.5268L19.3489 21.5521C19.6031 21.6386 19.8718 21.6739 20.1397 21.656C20.4054 21.6383 20.665 21.5686 20.9038 21.451C22.3814 20.7267 23.8534 19.9886 25.3192 19.2536C25.709 19.0581 26.0985 18.8628 26.4875 18.6681L26.4875 18.6681L26.4958 18.6639C27.6476 18.0765 27.5063 16.5162 26.4793 16.0019C26.2525 15.8884 26.0264 15.7752 25.8011 15.6623C24.0981 14.8094 22.4345 13.9763 20.7677 13.1512L20.7428 13.1389L20.7175 13.1277C20.5011 13.0323 20.2678 12.9813 20.0314 12.9779C19.795 12.9744 19.5603 13.0185 19.3412 13.1074L19.2993 13.1245L19.2587 13.1445C17.5635 13.9808 15.8732 14.8269 14.1671 15.6809C13.9107 15.8093 13.654 15.9378 13.3969 16.0664Z" stroke="#4F5763" stroke-width="2.5"/>
</svg>
