<svg width="35" height="34" viewBox="0 0 35 34" fill="none" xmlns="http://www.w3.org/2000/svg">
<path d="M0.00256348 4.80136C0.307324 3.92047 0.944238 3.62598 1.84825 3.62941C7.72515 3.6491 13.6021 3.63626 19.4832 3.64824C19.8163 3.64824 19.9721 3.56263 20.0962 3.24332C20.5461 2.04712 21.4365 1.06833 22.5849 0.507569C23.7334 -0.0531889 25.0528 -0.15343 26.2727 0.227393C27.7888 0.701654 28.8777 1.69298 29.4684 3.17912C29.6054 3.52154 29.7518 3.66279 30.1439 3.65166C31.2816 3.61828 32.4219 3.63026 33.5604 3.64482C34.2607 3.65423 34.7983 4.1088 34.961 4.77996C35.1073 5.3852 34.8351 6.06406 34.265 6.34485C33.9777 6.47773 33.6655 6.54805 33.349 6.55117C32.2566 6.57514 31.1626 6.57257 30.0694 6.55117C29.7612 6.54517 29.6199 6.63078 29.5052 6.93212C29.1345 7.91297 28.4677 8.75412 27.5973 9.33888C26.7269 9.92364 25.6961 10.223 24.6479 10.1954C22.6875 10.1526 20.8067 8.84457 20.1159 7.00488C19.9875 6.66246 19.8351 6.5486 19.467 6.54945C13.6123 6.5623 7.75854 6.54945 1.90475 6.56829C0.995602 6.56829 0.335573 6.29948 0.00684342 5.41431L0.00256348 4.80136ZM24.7883 7.2754C25.221 7.27691 25.6444 7.14974 26.0047 6.91005C26.3649 6.67037 26.6458 6.32898 26.8115 5.92929C26.9773 5.5296 27.0205 5.08964 26.9357 4.66534C26.8508 4.24103 26.6417 3.85154 26.3349 3.54635C26.0282 3.24117 25.6376 3.03407 25.2129 2.95139C24.7882 2.8687 24.3484 2.91416 23.9496 3.08199C23.5508 3.24981 23.2108 3.53242 22.973 3.89391C22.7351 4.25539 22.6102 4.67942 22.6139 5.11212C22.6208 5.68562 22.8525 6.23352 23.2591 6.63804C23.6657 7.04256 24.2148 7.27141 24.7883 7.2754Z" fill="#4F5763"/>
<path d="M0.00256348 28.1095C0.148095 27.8707 0.259383 27.6044 0.446862 27.399C0.782441 27.0223 1.24814 26.9632 1.73096 26.9641C7.63098 26.9641 13.5307 26.9675 19.4302 26.9744C19.8017 26.9744 19.9746 26.8836 20.115 26.5189C21.3529 23.2787 25.5365 22.284 28.1201 24.5953C28.7603 25.1485 29.2461 25.8581 29.5301 26.655C29.6157 26.9024 29.7432 26.9744 29.9992 26.9709C31.1266 26.9572 32.2541 26.9615 33.3824 26.9709C34.1425 26.9709 34.6665 27.3074 34.9002 27.9126C35.2666 28.8731 34.5817 29.8704 33.5245 29.8867C32.385 29.903 31.2456 29.9047 30.1079 29.8867C29.7749 29.8799 29.6199 29.9663 29.495 30.2933C29.0432 31.4886 28.152 32.4663 27.0035 33.0265C25.855 33.5868 24.536 33.6873 23.3159 33.3075C21.7869 32.8273 20.6954 31.8231 20.1073 30.3233C19.9721 29.9809 19.8068 29.885 19.4473 29.8858C13.5815 29.8987 7.71916 29.8858 1.85081 29.9055C0.944238 29.9055 0.309892 29.6136 0.00513158 28.7327L0.00256348 28.1095ZM22.6139 28.4357C22.6172 29.0106 22.8463 29.5613 23.2517 29.9689C23.6572 30.3766 24.2065 30.6087 24.7814 30.6152C25.9705 30.6255 26.9815 29.6153 26.9781 28.4211C26.9762 27.8422 26.7443 27.2877 26.3336 26.8796C25.9228 26.4716 25.3668 26.2435 24.7879 26.2454C24.2089 26.2473 23.6544 26.4792 23.2464 26.8899C22.8384 27.3007 22.6102 27.8567 22.6122 28.4357H22.6139Z" fill="#4F5763"/>
<path d="M0.00256875 16.469C0.290208 15.5769 0.918561 15.2474 1.83027 15.2807C2.85755 15.3184 3.88056 15.2722 4.90441 15.2987C5.24684 15.3081 5.39066 15.1934 5.51136 14.8775C5.96673 13.6772 6.86528 12.6972 8.02178 12.1398C9.17828 11.5823 10.5046 11.4898 11.7273 11.8813C13.2408 12.377 14.316 13.3777 14.8999 14.8596C15.0266 15.1806 15.1721 15.2979 15.5325 15.297C21.4319 15.2827 27.3308 15.2805 33.2291 15.2902C33.4784 15.2809 33.7279 15.3057 33.9705 15.3638C34.2969 15.4586 34.5787 15.6669 34.765 15.9512C34.9513 16.2355 35.0299 16.577 34.9866 16.9141C34.9469 17.2507 34.79 17.5625 34.5435 17.7951C34.297 18.0276 33.9766 18.1661 33.6383 18.1862C33.48 18.1974 33.3199 18.1965 33.1606 18.1965C27.2823 18.1965 21.4063 18.1934 15.5325 18.1871C15.1721 18.1871 15.0248 18.3018 14.9007 18.6245C14.4411 19.823 13.5392 20.7994 12.3809 21.3525C11.2227 21.9057 9.8964 21.9934 8.67539 21.5977C7.13447 21.0934 6.06524 20.061 5.48397 18.5458C5.38296 18.2804 5.26139 18.1845 4.97033 18.1897C3.92336 18.2085 2.87468 18.1683 1.82771 18.2059C0.915993 18.2385 0.286783 17.9089 0 17.0169L0.00256875 16.469ZM12.3864 16.748C12.3872 16.4614 12.3314 16.1774 12.2224 15.9122C12.1134 15.6471 11.9532 15.406 11.751 15.2028C11.5488 14.9996 11.3086 14.8382 11.044 14.7278C10.7794 14.6174 10.4957 14.5602 10.209 14.5595C9.92236 14.5588 9.63836 14.6145 9.37323 14.7235C9.1081 14.8326 8.86704 14.9928 8.66381 15.195C8.46059 15.3971 8.29918 15.6374 8.1888 15.902C8.07842 16.1665 8.02123 16.4502 8.0205 16.7369C8.01977 17.0236 8.07551 17.3076 8.18454 17.5727C8.29357 17.8379 8.45375 18.0789 8.65594 18.2821C8.85813 18.4854 9.09837 18.6468 9.36294 18.7572C9.62752 18.8675 9.91124 18.9247 10.1979 18.9255C10.4846 18.9262 10.7686 18.8704 11.0337 18.7614C11.2988 18.6524 11.5399 18.4922 11.7431 18.29C11.9464 18.0878 12.1078 17.8476 12.2181 17.583C12.3285 17.3184 12.3857 17.0347 12.3864 16.748Z" fill="#4F5763"/>
</svg>
