<svg width="35" height="30" viewBox="0 0 35 30" fill="none" xmlns="http://www.w3.org/2000/svg">
<path d="M30.7922 11.0857C31.283 11.1446 31.7425 11.1529 32.1769 11.2603C34.3011 11.7914 35.4802 13.9229 34.8139 16.0265C33.8876 18.9474 32.9424 21.8631 32.0046 24.7809C31.7602 25.5414 31.5221 26.3039 31.2736 27.0612C30.7222 28.7144 29.3499 29.697 27.5934 29.697C19.6989 29.697 11.8044 29.697 3.90998 29.697C1.65631 29.697 0.00104433 28.0438 0 25.8028C0 18.5076 0 11.2128 0 3.9183C0 1.58841 1.59469 0.00448919 3.94027 0.000356333C6.13336 0.000356333 8.31708 0.0055224 10.506 0.000356333C11.465 -0.0121721 12.3984 0.306013 13.1461 0.900281C14.6927 2.10087 16.2498 3.28907 17.7923 4.49587C18.1764 4.8073 18.6608 4.9716 19.1572 4.95875C21.6845 4.94531 24.2118 4.95255 26.7391 4.95255C29.2309 4.95255 30.7953 6.49617 30.7963 8.95108C30.7932 9.65573 30.7922 10.3645 30.7922 11.0857ZM3.10794 27.0612C3.48807 27.1212 3.81183 27.2162 4.13661 27.2173C11.9266 27.2255 19.716 27.2276 27.5046 27.2235C28.3672 27.2235 28.7411 26.9548 28.999 26.1541C30.1415 22.5998 31.2844 19.0449 32.4276 15.4893C32.7753 14.4064 32.1843 13.6129 31.0303 13.6119H8.52072C7.71763 13.6119 7.33645 13.8888 7.08894 14.6544C6.55842 16.2972 6.03032 17.94 5.50467 19.5828C4.71829 22.0347 3.93296 24.4865 3.10794 27.0612ZM28.2502 11.1374C28.2658 11.0974 28.278 11.0563 28.2868 11.0144C28.2868 10.2912 28.2868 9.56791 28.2868 8.84466C28.2868 7.89823 27.8012 7.41987 26.8446 7.41987C24.2651 7.41987 21.6856 7.40747 19.1071 7.41987C18.0703 7.44023 17.06 7.09484 16.2571 6.44554C14.7282 5.24391 13.1763 4.06916 11.6422 2.87373C11.2965 2.59708 10.8628 2.45065 10.4183 2.46044C8.28156 2.47077 6.14484 2.46044 4.00918 2.46044C2.94187 2.46044 2.49388 2.90472 2.49388 3.96583V20.2152C2.57377 20.1417 2.62974 20.0464 2.65469 19.9414C3.28755 17.9535 3.92009 15.9659 4.55226 13.9787C5.16423 12.0662 6.47277 11.1229 8.50399 11.1229H28.2419L28.2502 11.1374Z" fill="white"/>
</svg>
