<svg width="25" height="21" viewBox="0 0 25 21" fill="none" xmlns="http://www.w3.org/2000/svg">
<path d="M0.845424 20.2554C0.880991 20.3991 0.951528 20.5322 1.05094 20.6431C1.15035 20.7539 1.27564 20.8393 1.41598 20.8916C1.57573 20.9464 1.74643 20.9626 1.91385 20.9391C2.08127 20.9156 2.24056 20.8529 2.37845 20.7564C3.58438 19.9692 4.80387 19.1634 5.98492 18.3844L7.34913 17.485L9.13615 16.3069C11.5849 14.6946 14.1174 13.0274 16.6016 11.3787C16.8109 11.2426 16.9838 11.0588 17.1058 10.8428C17.3319 10.4057 17.1616 9.94186 16.6476 9.6029C14.4397 8.14749 12.2311 6.69257 10.0218 5.23815L6.67079 3.03124C5.25433 2.09764 3.83762 1.16329 2.42066 0.228196C2.18701 0.0735866 1.98125 0 1.77549 0C1.7041 0.000313559 1.63299 0.0090458 1.5637 0.0260143C0.936622 0.174678 0.804723 0.689797 0.804723 1.09342C0.804723 3.38432 0.804723 5.67547 0.804723 7.96686V12.0707C0.804723 14.6436 0.804723 17.2162 0.804723 19.7886V19.8042C0.799703 19.9556 0.813371 20.1072 0.845424 20.2554ZM2.76887 3.19477C2.7689 3.15438 2.78006 3.11475 2.80115 3.08013C2.82223 3.0455 2.85246 3.01717 2.8886 2.99817C2.92474 2.97916 2.96544 2.97019 3.00634 2.97222C3.04725 2.97425 3.08683 2.9872 3.12085 3.00969L14.1814 10.2942C14.2125 10.3145 14.238 10.3421 14.2557 10.3746C14.2733 10.407 14.2826 10.4432 14.2826 10.48C14.2826 10.5168 14.2733 10.553 14.2557 10.5855C14.238 10.6179 14.2125 10.6455 14.1814 10.6658L3.12085 17.9503C3.08355 17.9747 3.03974 17.9877 2.99498 17.9875C2.95793 17.9876 2.92144 17.9786 2.88871 17.9615C2.85249 17.9425 2.82221 17.9141 2.80109 17.8794C2.77998 17.8447 2.76884 17.805 2.76887 17.7645V3.19477Z" fill="#D2D3DF"/>
<path d="M18.8655 17.667C18.8704 17.8895 18.9563 18.1027 19.1074 18.268C19.2584 18.4332 19.4647 18.5394 19.6886 18.5672C20.2033 18.6266 20.6352 18.3523 20.7626 17.8855C20.7966 17.723 20.81 17.557 20.8025 17.3912C20.8025 12.7827 20.8025 8.17412 20.8025 3.56555V3.53285C20.8025 3.42432 20.8025 3.32249 20.7935 3.22288C20.7696 3.00592 20.6701 2.80384 20.5121 2.65109C20.354 2.49833 20.1472 2.40435 19.9267 2.38517C19.8951 2.38517 19.8642 2.38517 19.834 2.38517C19.591 2.37815 19.3546 2.46358 19.1738 2.62377C18.971 2.8096 18.8595 3.09578 18.8587 3.42878C18.8587 5.09183 18.8587 6.75438 18.8587 8.41643V13.8516C18.8587 14.1984 18.8587 14.5453 18.8587 14.8922C18.8595 15.8005 18.855 16.7423 18.8655 17.667Z" fill="#D2D3DF"/>
<path d="M22.8108 17.667C22.8158 17.8895 22.9016 18.1027 23.0527 18.268C23.2038 18.4332 23.41 18.5394 23.6339 18.5672C24.1486 18.6266 24.5805 18.3523 24.7079 17.8855C24.7419 17.723 24.7553 17.557 24.7478 17.3912C24.7478 12.7827 24.7478 8.17412 24.7478 3.56555V3.53285C24.7478 3.42432 24.7478 3.32249 24.7388 3.22288C24.7149 3.00592 24.6154 2.80384 24.4574 2.65109C24.2993 2.49833 24.0925 2.40435 23.872 2.38517C23.8404 2.38517 23.8095 2.38517 23.7793 2.38517C23.5364 2.37815 23.2999 2.46358 23.1191 2.62377C22.9163 2.8096 22.8048 3.09578 22.804 3.42878C22.804 5.09183 22.804 6.75438 22.804 8.41643V13.8516C22.804 14.1984 22.804 14.5453 22.804 14.8922C22.8048 15.8005 22.8003 16.7423 22.8108 17.667Z" fill="#D2D3DF"/>
</svg>
