<svg width="20" height="19" viewBox="0 0 20 19" fill="none" xmlns="http://www.w3.org/2000/svg">
<path d="M5.59998 0.100037H0V5.70001C0 6.10001 0.299951 6.40002 0.699951 6.40002C1.09995 6.40002 1.40002 6.10001 1.40002 5.70001V1.60004H5.5C5.9 1.60004 6.19995 1.30002 6.19995 0.900024C6.19995 0.500024 5.99998 0.100037 5.59998 0.100037Z" fill="#D2D3DF"/>
<path d="M13.5 0.100037C13.1 0.100037 12.7999 0.399988 12.7999 0.799988C12.7999 1.19999 13.1 1.5 13.5 1.5H17.6V5.60004C17.6 6.00004 17.8999 6.29999 18.2999 6.29999C18.6999 6.29999 19 6.00004 19 5.60004V0H13.5V0.100037Z" fill="#D2D3DF"/>
<path d="M5.59998 16.7H1.5V12.6C1.5 12.2 1.19993 11.9 0.799927 11.9C0.399927 11.9 0.0999756 12.2 0.0999756 12.6V18.2H5.69995C6.09995 18.2 6.40002 17.9 6.40002 17.5C6.40002 17.1 5.99998 16.7 5.59998 16.7Z" fill="#D2D3DF"/>
<path d="M18.2999 11.9C17.8999 11.9 17.6 12.2 17.6 12.6V16.7H13.5C13.1 16.7 12.7999 17 12.7999 17.4C12.7999 17.8 13.1 18.1 13.5 18.1H19.1V12.5C19 12.2 18.6999 11.9 18.2999 11.9Z" fill="#D2D3DF"/>
</svg>
