<svg width="29" height="32" viewBox="0 0 29 32" fill="none" xmlns="http://www.w3.org/2000/svg">
<path d="M14.8222 0C14.9867 0.0500992 15.1513 0.0960291 15.3158 0.151973C15.9054 0.349759 16.4133 0.741009 16.7596 1.26408C17.1059 1.78715 17.2709 2.4123 17.2286 3.04102C17.2154 3.284 17.2845 3.40675 17.4844 3.5345C19.6103 4.89386 21.731 6.26101 23.8464 7.63595C24.0192 7.74784 24.1434 7.77038 24.34 7.661C24.9786 7.31423 25.7239 7.22951 26.4223 7.42432C27.1206 7.61914 27.7186 8.07862 28.0928 8.70793C28.467 9.33724 28.5889 10.0883 28.4332 10.8062C28.2776 11.5241 27.8564 12.1539 27.2565 12.5657C27.1688 12.6136 27.0969 12.6867 27.0498 12.7758C27.0027 12.8648 26.9825 12.966 26.9916 13.0667C26.9998 15.5349 26.9998 18.0031 26.9916 20.4714C26.9827 20.5662 27.0013 20.6617 27.0451 20.7459C27.089 20.8302 27.1562 20.8996 27.2384 20.9456C27.5606 21.1492 27.8392 21.4165 28.0574 21.7317C28.2756 22.0469 28.4291 22.4034 28.5086 22.7801C28.5882 23.1567 28.5922 23.5458 28.5204 23.924C28.4486 24.3023 28.3025 24.662 28.0908 24.9817C27.879 25.3014 27.606 25.5746 27.2881 25.7849C26.9701 25.9953 26.6136 26.1385 26.24 26.206C25.8663 26.2735 25.483 26.2639 25.1131 26.1778C24.7431 26.0918 24.394 25.931 24.0866 25.705C23.9098 25.5806 23.7872 25.5706 23.5971 25.6708C21.5579 26.7402 19.5152 27.8025 17.4688 28.8579C17.3946 28.8873 17.3313 28.9395 17.2878 29.0072C17.2443 29.0748 17.2227 29.1546 17.2261 29.2354C17.1439 30.8093 15.9295 31.9983 14.4067 32C13.6759 31.9998 12.9734 31.713 12.4461 31.1995C11.9187 30.6861 11.6072 29.9856 11.5766 29.2445C11.5634 28.994 11.4787 28.8847 11.2722 28.7795C9.18803 27.7257 7.11043 26.6642 5.03941 25.5948C4.83703 25.4905 4.71033 25.5113 4.5244 25.6441C3.59392 26.3221 2.58365 26.4231 1.56267 25.8946C0.541697 25.366 -0.000449872 24.4668 0.0143588 23.2894C0.0324582 22.1255 0.59025 21.2704 1.61781 20.7519C1.8424 20.6383 1.92632 20.5256 1.9255 20.2684C1.91508 17.9255 1.91508 15.5822 1.9255 13.2387C1.9255 12.9941 1.85556 12.8805 1.63426 12.7753C1.28417 12.61 0.97117 12.3736 0.71456 12.0808C0.457951 11.7879 0.26318 11.4449 0.142243 11.0727C0.0213062 10.7005 -0.0232376 10.3071 0.0113861 9.91682C0.0460098 9.52651 0.15905 9.14753 0.34354 8.80327C0.528031 8.45901 0.780056 8.15676 1.08407 7.91516C1.38809 7.67356 1.73766 7.49773 2.11121 7.39852C2.48476 7.29932 2.87437 7.27883 3.25602 7.33834C3.63767 7.39784 4.00327 7.53607 4.33026 7.74449C4.52688 7.86891 4.6544 7.85638 4.84362 7.73364C7.00075 6.32752 9.16252 4.9292 11.329 3.53867C11.5223 3.41509 11.6013 3.30488 11.5758 3.05021C11.4499 1.67164 12.438 0.370735 13.8111 0.0634597C13.8794 0.047595 13.9452 0.0208746 14.0126 0H14.8222ZM10.6379 20.9824C11.6526 22.7119 12.6703 24.4417 13.691 26.1718C13.7313 26.2386 13.867 26.272 13.96 26.277C14.266 26.2912 14.577 26.2511 14.8765 26.2971C15.1019 26.3321 15.2056 26.2678 15.31 26.0825C16.1862 24.5678 17.0624 23.0523 17.9616 21.5527C18.1846 21.1811 18.3047 20.8847 18.0192 20.4764C17.8826 20.2826 17.788 20.1958 17.5544 20.1966C15.5865 20.2058 13.6186 20.215 11.6507 20.1916C11.227 20.1858 10.9226 20.2434 10.8025 20.7026C10.7605 20.8031 10.7051 20.8972 10.6379 20.9824ZM10.5252 17.3619C10.6823 17.6508 10.8173 17.9171 10.9728 18.1718C10.9976 18.211 11.0303 18.2445 11.0687 18.2701C11.1071 18.2957 11.1504 18.3128 11.1957 18.3204C13.3682 18.3282 15.5412 18.3282 17.7148 18.3204C17.7568 18.3182 17.7977 18.3069 17.8351 18.2873C17.8724 18.2678 17.9051 18.2403 17.9312 18.2069C18.0899 17.9422 18.2273 17.665 18.382 17.3719C18.3203 17.2792 18.2471 17.1673 18.1722 17.0563C17.1792 15.5917 16.1796 14.1338 15.1973 12.6592C15.0435 12.4279 14.897 12.3361 14.6214 12.3987C14.4501 12.4313 14.274 12.4278 14.104 12.3887C13.9098 12.3503 13.8094 12.4196 13.705 12.5774C13.0287 13.6069 12.3417 14.629 11.6589 15.6535L10.5252 17.3619ZM8.73254 10.7571V10.8757C7.77903 10.8757 6.82634 10.8832 5.87365 10.8699C5.6581 10.8699 5.57171 10.94 5.51494 11.1421C5.46594 11.3331 5.38224 11.5132 5.26813 11.6731C5.12416 11.8626 5.17516 11.9946 5.28705 12.1674C6.04887 13.3364 6.82221 14.5054 7.54948 15.6969C7.83085 16.1595 8.11057 16.5144 8.70127 16.4183C8.71032 16.4183 8.72349 16.4258 8.73089 16.4183C8.82386 16.3774 8.95303 16.3607 9.00157 16.2881C10.0601 14.7177 11.1112 13.1421 12.155 11.5612C12.1986 11.4944 12.1772 11.36 12.1459 11.2715C12.1081 11.1671 12.0077 11.0869 11.9682 10.9826C11.8925 10.783 11.7617 10.7454 11.5643 10.7479C10.6173 10.7613 9.67453 10.7546 8.73172 10.7546L8.73254 10.7571ZM22.8657 10.8815C21.1315 10.8423 19.3594 10.8139 17.5881 10.7504C17.1685 10.7354 16.8707 10.803 16.6947 11.2289C16.6379 11.3675 16.6009 11.4485 16.6947 11.5821C17.7642 13.146 18.8213 14.715 19.89 16.2789C19.9173 16.3184 19.9522 16.3518 19.9927 16.3771C20.0332 16.4024 20.0783 16.419 20.1253 16.4258C20.8896 16.4317 20.8896 16.4258 21.3092 15.7729L21.5609 15.3804L23.5856 12.2125L22.8657 10.8815ZM6.71033 21.6228C6.38125 21.8658 6.06615 22.1121 5.73707 22.3417C5.59474 22.4411 5.57994 22.5421 5.60792 22.7083C5.66285 22.9829 5.68194 23.2636 5.66468 23.5433C5.64329 23.7679 5.72143 23.8514 5.89749 23.9407C7.83084 24.921 9.76201 25.9057 11.691 26.8949C11.7774 26.9392 11.8679 26.9784 11.9625 27.0202C11.9699 26.9742 11.9814 26.95 11.974 26.9367C11.0487 25.3535 10.121 23.7718 9.19077 22.1914C9.16648 22.157 9.13451 22.129 9.09747 22.1095C9.06044 22.0901 9.0194 22.0798 8.9777 22.0795C8.58882 22.1651 8.18674 22.1685 7.79651 22.0895C7.40629 22.0105 7.03627 21.8508 6.70951 21.6203L6.71033 21.6228ZM16.9374 26.9784C16.9818 26.9859 17.0056 26.9984 17.0196 26.9918C18.9327 25.9981 20.8441 25.0014 22.7539 24.0017C22.8238 23.9649 22.8732 23.8288 22.8789 23.7353C22.897 23.4464 22.804 23.1183 22.9085 22.8728C23.1619 22.2808 22.8493 22.0228 22.4289 21.7556C22.2644 21.6512 22.1607 21.647 21.9978 21.7489C21.4239 22.1073 20.7375 22.2317 20.0768 22.0971C19.8637 22.0578 19.7699 22.1063 19.6654 22.2874C18.7999 23.7837 17.9238 25.2742 17.0517 26.7671C17.0122 26.8273 16.9777 26.8999 16.9365 26.9759L16.9374 26.9784ZM17.1842 8.87758L22.3919 8.99364L22.4133 8.92934L16.3392 5.01159C16.2142 5.10511 16.1179 5.22618 15.9986 5.26208C15.2771 5.45496 15.2788 6.00689 15.3331 6.59138C15.3331 6.62228 15.3224 6.65985 15.3331 6.68407C15.3693 6.7492 15.4014 6.84271 15.4598 6.86692C16.3508 7.24434 16.9061 7.92318 17.18 8.87507L17.1842 8.87758ZM6.41168 8.9452C6.4849 8.97526 6.50218 8.98946 6.51863 8.98863C8.16898 8.95439 9.81851 8.92099 11.468 8.87423C11.5198 8.86175 11.568 8.83712 11.6087 8.80232C11.6494 8.76752 11.6816 8.72351 11.7025 8.67383C11.9213 8.04425 12.2496 7.44974 12.8403 7.18004C13.4647 6.89531 13.5618 6.46947 13.4861 5.88916C13.4795 5.83822 13.5001 5.77894 13.4812 5.73469C13.4563 5.66358 13.412 5.60106 13.3537 5.55433C13.0682 5.37815 12.7778 5.21449 12.4618 5.0333L6.41168 8.9452ZM22.591 17.2116C23.296 18.1701 23.5124 18.7438 23.3701 19.6389C23.3108 20.0138 23.4202 20.1808 23.6934 20.3904C24.0751 20.6885 24.4034 20.8738 24.8863 20.5899C25.0714 20.4814 25.1611 20.4229 25.1603 20.2C25.1529 17.9839 25.1603 15.767 25.1553 13.551C25.1553 13.4742 25.1455 13.3973 25.1348 13.2345L22.591 17.2116ZM3.80618 13.2871C3.79138 13.4449 3.77985 13.5126 3.77985 13.581C3.77985 15.8397 3.77987 18.0983 3.77411 20.357C3.77411 20.5565 3.86789 20.6216 4.01351 20.7277C4.36069 20.9782 4.63136 20.9206 4.91848 20.6392C5.07802 20.4925 5.25166 20.3624 5.43679 20.2509C5.58816 20.1524 5.60543 20.0422 5.59145 19.8643C5.55237 19.4737 5.55237 19.0801 5.59145 18.6895C5.65973 18.1184 5.97155 17.6483 6.34505 17.2266L3.80618 13.2871ZM21.5568 19.2598C21.5552 18.9966 21.4522 18.7445 21.2699 18.5573C21.0876 18.3701 20.8404 18.2626 20.5811 18.2578C20.3171 18.2615 20.0649 18.3697 19.8783 18.5594C19.6917 18.749 19.5855 19.0052 19.5823 19.2731C19.5843 19.4056 19.612 19.5364 19.6638 19.658C19.7157 19.7796 19.7907 19.8896 19.8846 19.9817C19.9785 20.0738 20.0893 20.1462 20.2108 20.1947C20.3323 20.2432 20.4621 20.2668 20.5926 20.2643C20.7209 20.2627 20.8476 20.2353 20.9654 20.1837C21.0832 20.1322 21.1898 20.0575 21.279 19.964C21.3682 19.8705 21.4384 19.76 21.4854 19.6388C21.5323 19.5177 21.5552 19.3883 21.5527 19.2581L21.5568 19.2598ZM15.3964 2.87737C15.3965 2.61449 15.2947 2.36213 15.1131 2.17469C14.9315 1.98726 14.6846 1.87977 14.4256 1.87539C14.296 1.87374 14.1673 1.89802 14.0469 1.94686C13.9265 1.99569 13.8168 2.06812 13.7239 2.16C13.6311 2.25188 13.557 2.36141 13.5059 2.48235C13.4548 2.60329 13.4277 2.73326 13.426 2.86484C13.4244 2.99642 13.4484 3.12704 13.4965 3.24924C13.5446 3.37143 13.616 3.48281 13.7065 3.57702C13.797 3.67122 13.9049 3.7464 14.0241 3.79828C14.1432 3.85015 14.2713 3.87771 14.401 3.87935C14.5315 3.88149 14.6612 3.857 14.7822 3.80735C14.9033 3.7577 15.0133 3.68389 15.1058 3.5903C15.1982 3.4967 15.2712 3.38523 15.3204 3.26248C15.3697 3.13973 15.3941 3.00821 15.3923 2.8757L15.3964 2.87737ZM2.86666 9.18568C2.73571 9.183 2.60555 9.20699 2.48389 9.25623C2.36223 9.30548 2.25154 9.37899 2.15835 9.4724C2.06516 9.56581 1.99137 9.67724 1.94134 9.8001C1.89131 9.92295 1.86605 10.0547 1.86707 10.1877C1.86851 10.4502 1.97086 10.7018 2.15232 10.889C2.33379 11.0761 2.58004 11.184 2.83868 11.1896C3.10213 11.1897 3.35505 11.0847 3.54294 10.8973C3.73084 10.7098 3.83867 10.455 3.8432 10.1877C3.84364 9.92279 3.74073 9.66851 3.55696 9.48043C3.37319 9.29235 3.12352 9.18577 2.86255 9.18401L2.86666 9.18568ZM25.686 9.18568C25.4265 9.18565 25.1775 9.28927 24.9928 9.47412C24.808 9.65897 24.7024 9.9102 24.6987 10.1735C24.7 10.4415 24.8052 10.6982 24.9914 10.8882C25.1777 11.0782 25.4301 11.1862 25.6942 11.1888C25.953 11.1851 26.2002 11.0792 26.3834 10.8935C26.5665 10.7079 26.671 10.457 26.6749 10.1944C26.677 10.0613 26.6527 9.92915 26.6036 9.80577C26.5545 9.68239 26.4815 9.57028 26.3889 9.47607C26.2963 9.38186 26.186 9.30746 26.0645 9.25729C25.9431 9.20713 25.813 9.1822 25.6819 9.18401L25.686 9.18568ZM8.35409 20.2659C8.61282 20.266 8.86122 20.1629 9.04585 19.979C9.23049 19.795 9.33659 19.5449 9.34133 19.2823C9.34138 19.0149 9.23795 18.7581 9.05331 18.5673C8.86866 18.3764 8.61757 18.2668 8.35409 18.262C8.09534 18.265 7.84795 18.3703 7.66451 18.5556C7.48107 18.7408 7.37605 18.9913 7.37179 19.2539C7.36859 19.386 7.39157 19.5174 7.43937 19.6403C7.48718 19.7632 7.55883 19.8751 7.65007 19.9693C7.74131 20.0636 7.8503 20.1383 7.97054 20.1889C8.09077 20.2396 8.21979 20.2652 8.34997 20.2643L8.35409 20.2659ZM14.4149 28.1232C14.2841 28.1234 14.1546 28.1498 14.0339 28.2009C13.9131 28.252 13.8035 28.3267 13.7112 28.4209C13.619 28.5151 13.5459 28.6268 13.4963 28.7496C13.4467 28.8725 13.4214 29.0041 13.4219 29.1368C13.4297 29.3989 13.5366 29.6479 13.7204 29.8321C13.9042 30.0164 14.1509 30.1217 14.4092 30.1263C14.5401 30.1263 14.6697 30.0999 14.7904 30.0486C14.9112 29.9973 15.0207 29.9222 15.1126 29.8275C15.2044 29.7329 15.2768 29.6207 15.3256 29.4973C15.3743 29.374 15.3984 29.2421 15.3964 29.1093C15.396 28.9786 15.3701 28.8494 15.3203 28.7289C15.2705 28.6084 15.1976 28.4991 15.106 28.4073C15.0144 28.3155 14.9059 28.243 14.7866 28.194C14.6672 28.1449 14.5396 28.1203 14.4108 28.1215L14.4149 28.1232ZM15.3973 9.53387C15.3975 9.40373 15.3723 9.27483 15.3233 9.15457C15.2743 9.03432 15.2023 8.92508 15.1116 8.83314C15.0209 8.74119 14.9131 8.66835 14.7946 8.6188C14.676 8.56925 14.5489 8.54398 14.4207 8.54442C14.1575 8.54352 13.9047 8.64843 13.7176 8.83619C13.5304 9.02396 13.4241 9.27931 13.4219 9.5464C13.4282 9.81014 13.5342 10.0613 13.718 10.2479C13.9018 10.4344 14.1493 10.542 14.4092 10.5484C14.6723 10.5457 14.9237 10.4373 15.1082 10.2468C15.2926 10.0563 15.3951 9.79929 15.3931 9.5322L15.3973 9.53387ZM2.83704 24.3373C2.96803 24.339 3.09805 24.3143 3.21963 24.2648C3.3412 24.2153 3.45192 24.1418 3.54543 24.0487C3.63894 23.9556 3.7134 23.8446 3.76451 23.7222C3.81561 23.5998 3.84234 23.4683 3.8432 23.3354C3.83786 23.0733 3.73371 22.8233 3.55218 22.6369C3.37065 22.4505 3.12559 22.3419 2.86749 22.3334C2.60404 22.332 2.35081 22.4367 2.16329 22.6246C1.97577 22.8124 1.86924 23.068 1.86707 23.3354C1.86595 23.5975 1.96673 23.8496 2.14754 24.0369C2.32835 24.2241 2.57462 24.3315 2.83292 24.3357L2.83704 24.3373ZM25.6819 24.3373C25.9408 24.3409 26.1906 24.2405 26.3769 24.058C26.5632 23.8755 26.6709 23.6257 26.6765 23.3629C26.6819 23.164 26.6288 22.9679 26.524 22.7997C26.4192 22.6315 26.2674 22.4989 26.0879 22.4186C25.9085 22.3383 25.7096 22.314 25.5166 22.3489C25.3235 22.3838 25.1451 22.4762 25.004 22.6145C24.8629 22.7527 24.7656 22.9304 24.7244 23.125C24.6832 23.3195 24.7001 23.5222 24.7728 23.707C24.8455 23.8918 24.9708 24.0504 25.1327 24.1627C25.2946 24.275 25.4858 24.3358 25.6819 24.3373Z" fill="white"/>
</svg>
