<svg width="50" height="56" viewBox="0 0 50 56" fill="none" xmlns="http://www.w3.org/2000/svg">
<path d="M25.9388 0C26.2268 0.0876735 26.5147 0.168051 26.8027 0.265953C27.8344 0.612078 28.7233 1.29677 29.3293 2.21214C29.9354 3.12751 30.2241 4.22152 30.15 5.32179C30.127 5.74701 30.2479 5.96181 30.5978 6.18538C34.318 8.56425 38.0292 10.9568 41.7312 13.3629C42.0336 13.5587 42.251 13.5982 42.5951 13.4067C43.7125 12.7999 45.0169 12.6516 46.239 12.9926C47.461 13.3335 48.5075 14.1376 49.1624 15.2389C49.8172 16.3402 50.0305 17.6546 49.7582 18.9109C49.4859 20.1671 48.7487 21.2693 47.6989 21.99C47.5454 22.0738 47.4196 22.2017 47.3371 22.3576C47.2547 22.5135 47.2193 22.6905 47.2353 22.8667C47.2497 27.1861 47.2497 31.5055 47.2353 35.8249C47.2197 35.9909 47.2522 36.1579 47.329 36.3054C47.4057 36.4529 47.5233 36.5744 47.6672 36.6549C48.2311 37.0111 48.7185 37.4789 49.1005 38.0305C49.4824 38.582 49.7509 39.206 49.8901 39.8651C50.0293 40.5243 50.0363 41.2051 49.9107 41.8671C49.7851 42.529 49.5294 43.1585 49.1588 43.718C48.7883 44.2775 48.3106 44.7556 47.7541 45.1236C47.1977 45.4917 46.5739 45.7423 45.9199 45.8604C45.266 45.9786 44.5953 45.9618 43.9479 45.8112C43.3005 45.6606 42.6896 45.3792 42.1516 44.9838C41.8421 44.7661 41.6276 44.7486 41.295 44.9239C37.7264 46.7953 34.1515 48.6544 30.5704 50.5014C30.4406 50.5528 30.3299 50.6441 30.2537 50.7625C30.1775 50.881 30.1398 51.0206 30.1457 51.1619C30.0017 53.9163 27.8767 55.9971 25.2118 56C23.9328 55.9996 22.7035 55.4977 21.7806 54.5992C20.8577 53.7006 20.3125 52.4748 20.2591 51.178C20.236 50.7396 20.0877 50.5482 19.7264 50.3641C16.0791 48.52 12.4433 46.6623 8.81898 44.7909C8.4648 44.6083 8.24308 44.6448 7.9177 44.8772C6.28937 46.0637 4.52138 46.2405 2.73468 45.3155C0.94797 44.3906 -0.000787276 42.8168 0.0251279 40.7565C0.0568019 38.7196 1.03294 37.2233 2.83116 36.3158C3.22421 36.1171 3.37106 35.9198 3.36962 35.4698C3.35138 31.3696 3.35138 27.2689 3.36962 23.1677C3.36962 22.7396 3.24724 22.5409 2.85995 22.3567C2.2473 22.0674 1.69955 21.6538 1.25048 21.1413C0.801414 20.6289 0.460566 20.0285 0.248926 19.3772C0.0372858 18.7259 -0.0406658 18.0375 0.0199257 17.3544C0.0805172 16.6714 0.278337 16.0082 0.601196 15.4057C0.924054 14.8033 1.3651 14.2743 1.89713 13.8515C2.42916 13.4287 3.0409 13.121 3.69461 12.9474C4.34832 12.7738 5.03015 12.738 5.69804 12.8421C6.36592 12.9462 7.00572 13.1881 7.57795 13.5529C7.92204 13.7706 8.1452 13.7487 8.47634 13.5339C12.2513 11.0732 16.0344 8.6261 19.8257 6.19267C20.164 5.97641 20.3023 5.78353 20.2576 5.33786C20.0373 2.92538 21.7665 0.648786 24.1694 0.111055C24.2889 0.0832913 24.4041 0.0365306 24.5221 0H25.9388ZM18.6163 36.7191C20.392 39.7458 22.173 42.773 23.9592 45.8007C24.0298 45.9176 24.2673 45.976 24.43 45.9848C24.9655 46.0096 25.5098 45.9395 26.0338 46.0198C26.4283 46.0812 26.6097 45.9687 26.7926 45.6443C28.3259 42.9936 29.8592 40.3415 31.4328 37.7172C31.823 37.0669 32.0332 36.5482 31.5336 35.8336C31.2946 35.4946 31.1291 35.3427 30.7202 35.3441C27.2763 35.3602 23.8325 35.3763 20.3887 35.3354C19.6472 35.3251 19.1145 35.426 18.9043 36.2296C18.8308 36.4054 18.7339 36.5701 18.6163 36.7191ZM18.4191 30.3833C18.6941 30.8889 18.9302 31.355 19.2023 31.8006C19.2459 31.8692 19.3031 31.9278 19.3703 31.9726C19.4375 32.0174 19.5132 32.0474 19.5925 32.0608C23.3943 32.0744 27.1971 32.0744 31.0009 32.0608C31.0743 32.0569 31.1461 32.0371 31.2114 32.0029C31.2766 31.9686 31.334 31.9206 31.3795 31.862C31.6574 31.3988 31.8978 30.9137 32.1685 30.4008C32.0605 30.2386 31.9324 30.0428 31.8014 29.8485C30.0637 27.2855 28.3144 24.7342 26.5953 22.1536C26.3261 21.7489 26.0698 21.5881 25.5875 21.6977C25.2876 21.7547 24.9794 21.7487 24.6819 21.6802C24.3421 21.613 24.1665 21.7343 23.9837 22.0104C22.8002 23.8121 21.598 25.6007 20.403 27.3936L18.4191 30.3833ZM15.2819 18.825V19.0325C13.6133 19.0325 11.9461 19.0456 10.2789 19.0222C9.90167 19.0222 9.75049 19.145 9.65114 19.4986C9.5654 19.833 9.41892 20.1481 9.21923 20.4279C8.96727 20.7596 9.05653 20.9905 9.25234 21.293C10.5855 23.3387 11.9389 25.3844 13.2116 27.4696C13.704 28.2791 14.1935 28.9001 15.2272 28.7321C15.2431 28.7321 15.2661 28.7452 15.2791 28.7321C15.4418 28.6605 15.6678 28.6313 15.7527 28.5041C17.6052 25.7561 19.4447 22.9987 21.2712 20.2321C21.3475 20.1152 21.3101 19.88 21.2554 19.7251C21.1892 19.5424 21.0135 19.4022 20.9444 19.2195C20.8119 18.8703 20.583 18.8045 20.2375 18.8089C18.5804 18.8323 16.9304 18.8206 15.2805 18.8206L15.2819 18.825ZM40.015 19.0427C36.9801 18.974 33.8789 18.9243 30.7792 18.8133C30.0449 18.787 29.5238 18.9053 29.2157 19.6506C29.1163 19.8931 29.0515 20.0349 29.2157 20.2687C31.0873 23.0055 32.9373 25.7512 34.8076 28.4881C34.8553 28.5572 34.9164 28.6157 34.9872 28.6599C35.058 28.7041 35.137 28.7332 35.2193 28.7452C36.5568 28.7555 36.5568 28.7452 37.2911 27.6026L37.7317 26.9158L41.2748 21.3719L40.015 19.0427ZM11.7431 37.8399C11.1672 38.2651 10.6158 38.6962 10.0399 39.098C9.79079 39.2719 9.7649 39.4487 9.81385 39.7395C9.91 40.22 9.94339 40.7113 9.91319 41.2007C9.87575 41.5938 10.0125 41.7399 10.3206 41.8963C13.704 43.6117 17.0835 45.335 20.4592 47.0661C20.6104 47.1435 20.7688 47.2122 20.9343 47.2853C20.9473 47.2049 20.9674 47.1625 20.9545 47.1391C19.3353 44.3687 17.7117 41.6006 16.0839 38.835C16.0413 38.7748 15.9854 38.7257 15.9206 38.6916C15.8558 38.6576 15.784 38.6396 15.711 38.6392C15.0304 38.789 14.3268 38.7949 13.6439 38.6566C12.961 38.5184 12.3135 38.2388 11.7416 37.8355L11.7431 37.8399ZM29.6404 47.2122C29.7181 47.2254 29.7599 47.2473 29.7843 47.2356C33.1322 45.4967 36.4772 43.7525 39.8193 42.0029C39.9416 41.9386 40.028 41.7005 40.0381 41.5368C40.0698 41.0312 39.9071 40.457 40.0899 40.0274C40.5334 38.9913 39.9863 38.5398 39.2506 38.0722C38.9626 37.8896 38.7812 37.8823 38.4962 38.0606C37.4918 38.6878 36.2906 38.9055 35.1344 38.6699C34.7615 38.6012 34.5974 38.686 34.4145 39.003C32.8999 41.6216 31.3666 44.2298 29.8405 46.8425C29.7714 46.9477 29.7109 47.0748 29.6389 47.2078L29.6404 47.2122ZM30.0723 15.5358L39.1858 15.7389L39.2232 15.6264L28.5937 8.77028C28.3748 8.93394 28.2064 9.14581 27.9976 9.20865C26.735 9.54619 26.7379 10.5121 26.8329 11.5349C26.8329 11.589 26.8142 11.6547 26.8329 11.6971C26.8962 11.8111 26.9524 11.9747 27.0546 12.0171C28.6139 12.6776 29.5857 13.8656 30.0651 15.5314L30.0723 15.5358ZM11.2204 15.6541C11.3486 15.7067 11.3788 15.7316 11.4076 15.7301C14.2957 15.6702 17.1824 15.6117 20.069 15.5299C20.1597 15.5081 20.244 15.465 20.3153 15.4041C20.3865 15.3432 20.4427 15.2661 20.4794 15.1792C20.8623 14.0774 21.4368 13.0371 22.4705 12.5651C23.5633 12.0668 23.7332 11.3216 23.6007 10.306C23.5892 10.2169 23.6252 10.1131 23.5921 10.0357C23.5484 9.91127 23.4711 9.80186 23.3689 9.72007C22.8693 9.41176 22.3611 9.12536 21.8082 8.80827L11.2204 15.6541ZM39.5342 30.1202C40.768 31.7977 41.1467 32.8016 40.8976 34.368C40.794 35.0241 40.9854 35.3164 41.4634 35.6831C42.1315 36.2048 42.7059 36.5292 43.551 36.0324C43.875 35.8424 44.0319 35.7401 44.0305 35.35C44.0175 31.4719 44.0305 27.5923 44.0218 23.7142C44.0218 23.5798 44.0045 23.4454 43.9858 23.1604L39.5342 30.1202ZM6.66082 23.2525C6.63491 23.5287 6.61474 23.647 6.61474 23.7668C6.61474 27.7194 6.61477 31.6721 6.60469 35.6247C6.60469 35.9739 6.76881 36.0879 7.02364 36.2735C7.6312 36.7118 8.10487 36.611 8.60734 36.1186C8.88653 35.8619 9.19041 35.6342 9.51438 35.4391C9.77929 35.2667 9.80951 35.0738 9.78503 34.7626C9.71665 34.079 9.71665 33.3902 9.78503 32.7066C9.90453 31.7071 10.4502 30.8845 11.1038 30.1466L6.66082 23.2525ZM37.7244 33.7046C37.7215 33.244 37.5413 32.8028 37.2223 32.4752C36.9033 32.1476 36.4707 31.9595 36.0169 31.9512C35.5549 31.9576 35.1135 32.147 34.787 32.4789C34.4605 32.8108 34.2747 33.259 34.2691 33.728C34.2725 33.9599 34.3209 34.1888 34.4117 34.4016C34.5025 34.6144 34.6338 34.8069 34.798 34.968C34.9623 35.1292 35.1563 35.2558 35.369 35.3407C35.5816 35.4255 35.8087 35.4669 36.0371 35.4625C36.2616 35.4596 36.4832 35.4117 36.6894 35.3216C36.8955 35.2314 37.0821 35.1007 37.2383 34.937C37.3944 34.7734 37.5172 34.58 37.5994 34.3679C37.6816 34.1559 37.7216 33.9295 37.7172 33.7017L37.7244 33.7046ZM26.9438 5.0354C26.9438 4.57537 26.7657 4.13373 26.4479 3.80571C26.1301 3.4777 25.6981 3.28959 25.2449 3.28192C25.018 3.27905 24.7928 3.32154 24.5821 3.407C24.3714 3.49246 24.1793 3.6192 24.0169 3.77999C23.8545 3.94078 23.7248 4.13247 23.6354 4.34411C23.5459 4.55575 23.4984 4.7832 23.4956 5.01347C23.4927 5.24374 23.5346 5.47233 23.6188 5.68617C23.7031 5.90001 23.8279 6.09492 23.9863 6.25978C24.1448 6.42464 24.3336 6.55621 24.5422 6.64699C24.7507 6.73777 24.9748 6.78599 25.2017 6.78887C25.4302 6.7926 25.6571 6.74975 25.8689 6.66286C26.0808 6.57597 26.2733 6.44681 26.4351 6.28302C26.5969 6.11923 26.7246 5.92415 26.8108 5.70934C26.8969 5.49453 26.9397 5.26437 26.9366 5.03247L26.9438 5.0354ZM5.01666 16.0749C4.7875 16.0702 4.55972 16.1122 4.34681 16.1984C4.13391 16.2846 3.94019 16.4132 3.77711 16.5767C3.61403 16.7402 3.4849 16.9352 3.39735 17.1502C3.3098 17.3652 3.26559 17.5958 3.26737 17.8284C3.26989 18.2879 3.449 18.7282 3.76656 19.0557C4.08413 19.3832 4.51507 19.572 4.9677 19.5819C5.42873 19.582 5.87133 19.3982 6.20015 19.0702C6.52897 18.7422 6.71767 18.2963 6.7256 17.8284C6.72637 17.3649 6.54628 16.9199 6.22469 16.5908C5.90309 16.2616 5.46616 16.0751 5.00946 16.072L5.01666 16.0749ZM44.9504 16.0749C44.4964 16.0749 44.0607 16.2562 43.7374 16.5797C43.4141 16.9032 43.2292 17.3429 43.2228 17.8036C43.225 18.2726 43.409 18.7219 43.735 19.0544C44.061 19.3869 44.5027 19.5758 44.9649 19.5804C45.4178 19.574 45.8504 19.3886 46.1709 19.0637C46.4913 18.7387 46.6743 18.2998 46.681 17.8401C46.6847 17.6073 46.6423 17.376 46.5563 17.1601C46.4704 16.9442 46.3426 16.748 46.1805 16.5831C46.0185 16.4183 45.8255 16.2881 45.6129 16.2003C45.4004 16.1125 45.1727 16.0689 44.9433 16.072L44.9504 16.0749ZM14.6197 35.4654C15.0724 35.4655 15.5071 35.2852 15.8302 34.9632C16.1534 34.6413 16.339 34.2035 16.3473 33.7441C16.3474 33.276 16.1664 32.8267 15.8433 32.4927C15.5202 32.1587 15.0808 31.9669 14.6197 31.9585C14.1668 31.9637 13.7339 32.148 13.4129 32.4722C13.0919 32.7964 12.9081 33.2349 12.9006 33.6944C12.895 33.9256 12.9352 34.1555 13.0189 34.3705C13.1026 34.5856 13.2279 34.7814 13.3876 34.9464C13.5473 35.1113 13.738 35.242 13.9484 35.3306C14.1588 35.4193 14.3846 35.4641 14.6125 35.4625L14.6197 35.4654ZM25.2261 49.2155C24.9972 49.2159 24.7706 49.2621 24.5592 49.3516C24.3479 49.441 24.1561 49.5718 23.9946 49.7366C23.8332 49.9014 23.7054 50.0968 23.6185 50.3118C23.5317 50.5268 23.4875 50.7571 23.4884 50.9895C23.502 51.4481 23.6891 51.8838 24.0107 52.2062C24.3324 52.5286 24.7641 52.713 25.2161 52.721C25.4452 52.721 25.6719 52.6748 25.8833 52.5851C26.0946 52.4953 26.2862 52.3638 26.447 52.1982C26.6078 52.0326 26.7345 51.8361 26.8198 51.6204C26.905 51.4046 26.9472 51.1737 26.9438 50.9412C26.943 50.7126 26.8977 50.4864 26.8105 50.2756C26.7233 50.0647 26.5959 49.8735 26.4356 49.7129C26.2753 49.5522 26.0853 49.4253 25.8765 49.3395C25.6677 49.2536 25.4442 49.2105 25.219 49.2126L25.2261 49.2155ZM26.9452 16.6843C26.9456 16.4565 26.9016 16.2309 26.8158 16.0205C26.73 15.8101 26.6041 15.6189 26.4453 15.458C26.2865 15.2971 26.098 15.1696 25.8905 15.0829C25.683 14.9962 25.4606 14.952 25.2362 14.9527C24.7757 14.9512 24.3333 15.1347 24.0057 15.4633C23.6782 15.7919 23.4922 16.2388 23.4884 16.7062C23.4994 17.1677 23.6849 17.6073 24.0065 17.9338C24.3282 18.2602 24.7613 18.4485 25.2161 18.4597C25.6766 18.455 26.1165 18.2652 26.4393 17.9318C26.7621 17.5985 26.9415 17.1488 26.938 16.6814L26.9452 16.6843ZM4.96482 42.5904C5.19406 42.5932 5.42159 42.5501 5.63435 42.4634C5.8471 42.3767 6.04087 42.2482 6.20451 42.0853C6.36815 41.9223 6.49846 41.7281 6.58789 41.5139C6.67732 41.2996 6.7241 41.0696 6.7256 40.8369C6.71626 40.3783 6.53399 39.9408 6.21632 39.6146C5.89865 39.2884 5.46978 39.0983 5.0181 39.0834C4.55707 39.0811 4.11391 39.2643 3.78576 39.593C3.4576 39.9217 3.27117 40.369 3.26737 40.8369C3.26542 41.2957 3.44178 41.7368 3.7582 42.0645C4.07462 42.3922 4.50558 42.5801 4.95761 42.5874L4.96482 42.5904ZM44.9433 42.5904C45.3964 42.5966 45.8335 42.4209 46.1596 42.1015C46.4856 41.7821 46.6741 41.3449 46.6839 40.8851C46.6933 40.537 46.6004 40.1939 46.417 39.8995C46.2335 39.6052 45.9679 39.373 45.6539 39.2325C45.3399 39.092 44.9918 39.0496 44.654 39.1106C44.3162 39.1717 44.0039 39.3334 43.757 39.5753C43.5101 39.8172 43.3398 40.1282 43.2677 40.4687C43.1957 40.8092 43.2251 41.1638 43.3524 41.4872C43.4797 41.8106 43.6989 42.0883 43.9822 42.2847C44.2656 42.4812 44.6001 42.5876 44.9433 42.5904Z" fill="#4F5763"/>
</svg>
