<svg width="22" height="21" viewBox="0 0 22 21" fill="none" xmlns="http://www.w3.org/2000/svg">
<path d="M5.44503 20.2554C5.4806 20.3991 5.55114 20.5322 5.65055 20.6431C5.74996 20.7539 5.87525 20.8393 6.01559 20.8916C6.17534 20.9464 6.34604 20.9626 6.51346 20.9391C6.68088 20.9156 6.84017 20.8529 6.97806 20.7564C8.18399 19.9692 9.40348 19.1634 10.5845 18.3844L11.9487 17.485L13.7358 16.3069C16.1845 14.6946 18.717 13.0274 21.2012 11.3787C21.4105 11.2426 21.5834 11.0588 21.7054 10.8428C21.9315 10.4057 21.7612 9.94186 21.2472 9.6029C19.0393 8.14749 16.8307 6.69257 14.6214 5.23815L11.2704 3.03124C9.85394 2.09764 8.43723 1.16329 7.02027 0.228196C6.78662 0.0735866 6.58086 0 6.3751 0C6.30371 0.000313559 6.2326 0.0090458 6.16331 0.0260143C5.53623 0.174678 5.40433 0.689797 5.40433 1.09342C5.40433 3.38432 5.40433 5.67547 5.40433 7.96686V12.0707C5.40433 14.6436 5.40433 17.2162 5.40433 19.7886V19.8042C5.39931 19.9556 5.41298 20.1072 5.44503 20.2554ZM7.36848 3.19477C7.36851 3.15438 7.37967 3.11475 7.40075 3.08013C7.42184 3.0455 7.45207 3.01717 7.48821 2.99817C7.52435 2.97916 7.56505 2.97019 7.60595 2.97222C7.64686 2.97425 7.68644 2.9872 7.72046 3.00969L18.781 10.2942C18.8121 10.3145 18.8376 10.3421 18.8553 10.3746C18.8729 10.407 18.8822 10.4432 18.8822 10.48C18.8822 10.5168 18.8729 10.553 18.8553 10.5855C18.8376 10.6179 18.8121 10.6455 18.781 10.6658L7.72046 17.9503C7.68316 17.9747 7.63935 17.9877 7.59459 17.9875C7.55754 17.9876 7.52105 17.9786 7.48832 17.9615C7.4521 17.9425 7.42181 17.9141 7.4007 17.8794C7.37959 17.8447 7.36845 17.805 7.36848 17.7645V3.19477Z" fill="#D2D3DF"/>
<path d="M0.410441 19.667C0.415367 19.8895 0.501196 20.1027 0.65228 20.268C0.803363 20.4332 1.00964 20.5394 1.23348 20.5672C1.74826 20.6266 2.18013 20.3523 2.3075 19.8855C2.34149 19.723 2.35491 19.557 2.34745 19.3912C2.34745 14.7827 2.34745 6.17412 2.34745 1.56555V1.53285C2.34745 1.42432 2.34745 1.32249 2.3384 1.22288C2.3145 1.00592 2.21505 0.80384 2.057 0.651086C1.89895 0.498332 1.69208 0.404355 1.47165 0.385166C1.43999 0.385166 1.40909 0.385166 1.37894 0.385166C1.13596 0.378149 0.899557 0.463583 0.718702 0.62377C0.515957 0.809599 0.40441 1.09578 0.403656 1.42878C0.403656 3.09183 0.403656 6.75438 0.403656 8.41644V15.8516C0.403656 16.1984 0.403656 16.5453 0.403656 16.8922C0.40441 17.8005 0.399889 18.7423 0.410441 19.667Z" fill="#D2D3DF"/>
</svg>
