<svg width="36" height="29" viewBox="0 0 36 29" fill="none" xmlns="http://www.w3.org/2000/svg">
<path d="M22.4671 24.6579L19.9671 20.8421V15.9737C19.9671 12.2895 17.7303 9.13158 14.5724 7.81579V7.28947C14.5724 5.44737 13.125 4 11.2829 4C9.44079 4 7.99342 5.44737 7.99342 7.28947V7.81579C4.83553 9.13158 2.59856 12.2895 2.59856 15.9737V20.8421L0.0986842 24.6579C-0.0328947 24.921 -0.0328947 25.3158 0.0986842 25.5789C0.230263 25.8421 0.493389 25.9737 0.888126 25.9737H7.33553C7.73026 27.6842 9.30921 29 11.2829 29C13.125 29 14.7039 27.6842 15.2303 25.9737H21.6775C21.9407 25.9737 22.3355 25.8421 22.4671 25.5789C22.5987 25.1842 22.5987 24.921 22.4671 24.6579ZM9.70385 7.28947C9.70385 6.36842 10.3618 5.71053 11.2829 5.71053C12.2039 5.71053 12.8618 6.36842 12.8618 7.28947C12.3355 7.15789 11.8092 7.15789 11.2829 7.15789C10.7566 7.15789 10.2302 7.28947 9.70385 7.28947ZM11.2829 27.2895C10.3618 27.2895 9.57224 26.7632 9.1775 25.9737H13.3881C12.9934 26.7632 12.2039 27.2895 11.2829 27.2895ZM2.46701 24.2632L4.1776 21.6316C4.30918 21.5 4.30915 21.3684 4.30915 21.1053V15.9737C4.30915 12.0263 7.4671 8.86842 11.2829 8.86842C15.0987 8.86842 18.2565 12.0263 18.2565 15.9737V21.1053C18.2565 21.2368 18.2565 21.3684 18.388 21.6316L20.0986 24.2632H2.46701Z" fill="white"/>
<path d="M26 20C31.5228 20 36 15.5228 36 10C36 4.47715 31.5228 0 26 0C20.4772 0 16 4.47715 16 10C16 15.5228 20.4772 20 26 20Z" fill="#03AAFD"/>
<path d="M27 11.8H23V10.8L26.7001 5.39999H28.2001V10.6H29.2001V11.7H28.2001V13.4H27V11.8ZM27.1 10.7V6.79999L24.5 10.7H27.1Z" fill="white"/>
</svg>
