<svg width="25" height="31" viewBox="0 0 25 31" fill="none" xmlns="http://www.w3.org/2000/svg">
<path d="M8.56345 30.8744C7.89767 30.7957 7.22461 30.7485 6.56609 30.6323C4.89557 30.3376 3.40178 29.6772 2.2306 28.4038C1.52778 27.6401 0.995654 26.7356 0.669631 25.7503C0.218216 24.3957 -0.00792671 22.9763 0.0002121 21.5486C0.00868576 17.4497 0.000211953 13.3503 0.00384352 9.25086C0.00384352 8.12809 0.475948 7.27528 1.49097 6.76263C2.08897 6.46 2.72389 6.44305 3.42781 6.62523C3.42781 6.35347 3.42781 6.10955 3.42781 5.86563C3.44234 4.3434 4.39623 3.15224 5.87912 2.8139C6.38058 2.69973 6.90366 2.72421 7.39227 2.88472C7.50364 2.91982 7.61743 2.95008 7.76027 2.99124C7.83532 1.9623 8.2699 1.15064 9.0864 0.570195C9.67653 0.151354 10.3472 -0.0538292 11.0747 0.0121443C12.0389 0.0999072 12.8027 0.556879 13.371 1.33948C13.9394 2.12209 13.9793 3.03906 13.9273 3.99053C14.199 3.94271 14.4387 3.88158 14.6814 3.86161C16.329 3.72663 17.7017 4.90266 17.7846 6.55623C17.8294 7.44839 17.804 8.34417 17.8046 9.23814C17.8046 11.2779 17.8046 13.3174 17.8046 15.3567V15.7774C17.9595 15.6001 18.0467 15.4869 18.149 15.384C18.8928 14.6244 19.6016 13.8212 20.3957 13.1209C21.2522 12.368 22.2841 12.3262 23.3107 12.7517C24.2791 13.153 24.8976 13.8666 24.9903 14.95C25.0417 15.5553 24.8904 16.1272 24.5157 16.5927C22.1758 19.5064 20.2843 22.721 18.2815 25.8592C17.5952 26.9336 16.8682 27.9546 15.8514 28.7445C14.2947 29.955 12.5303 30.6269 10.5741 30.8181C10.4862 30.8315 10.3991 30.8499 10.3133 30.8732L8.56345 30.8744ZM12.1254 8.53423V6.21486C12.1254 5.17987 12.1357 4.14426 12.1182 3.10987C12.1085 2.54758 11.8216 2.13782 11.3017 1.91448C10.8362 1.71353 10.3084 1.83398 9.94163 2.20016C9.63356 2.50764 9.56577 2.88956 9.56637 3.30598C9.57 6.77292 9.57 10.2397 9.56637 13.7062C9.57089 13.8566 9.56137 14.0072 9.53792 14.1559C9.51437 14.29 9.46031 14.4169 9.37992 14.5268C9.29953 14.6367 9.19497 14.7266 9.0743 14.7897C8.95362 14.8527 8.82008 14.8872 8.68396 14.8904C8.54785 14.8937 8.41281 14.8656 8.28927 14.8084C7.88314 14.6207 7.75301 14.2782 7.75301 13.8484C7.75301 11.266 7.74756 8.68352 7.73667 6.10107C7.7393 5.9504 7.73405 5.79968 7.72093 5.64955C7.68938 5.38391 7.57279 5.13559 7.38856 4.94165C7.20432 4.7477 6.96231 4.61853 6.69864 4.5734C6.05101 4.46021 5.22241 4.97832 5.22665 5.89529C5.23996 8.51789 5.21515 11.1411 5.20546 13.7637C5.20546 13.8847 5.20546 14.0058 5.19638 14.1268C5.18188 14.3082 5.11126 14.4805 4.99433 14.6199C4.87741 14.7593 4.71998 14.8588 4.54391 14.9046C3.92957 15.0692 3.39997 14.6389 3.39391 13.9525C3.38605 12.7971 3.39391 11.6416 3.39391 10.4856C3.39391 10.0014 3.40965 9.5202 3.38181 9.03901C3.34731 8.4392 2.67365 8.12325 2.17613 8.45554C1.88621 8.64923 1.80873 8.93067 1.80934 9.26357C1.81378 13.3733 1.81378 17.483 1.80934 21.5927C1.80086 22.709 1.96208 23.82 2.2875 24.8878C2.86431 26.7484 4.02157 28.0581 5.92633 28.6186C7.60079 29.1111 9.36563 29.2146 11.0862 28.9213C12.9909 28.6047 14.6294 27.7434 15.8423 26.2097C16.3635 25.5512 16.7775 24.8085 17.2393 24.1028C18.6677 21.9184 20.084 19.7261 21.5312 17.5532C21.9809 16.8772 22.5123 16.2562 22.9965 15.6025C23.2713 15.2308 23.2386 14.8725 22.9281 14.6098C22.4627 14.2158 21.8483 14.2207 21.3974 14.6286C20.2535 15.6642 19.2251 16.7985 18.3741 18.0925C18.2186 18.3243 18.0017 18.5083 17.7477 18.6239C16.8967 18.9871 16.0112 18.3461 15.9985 17.3674C15.984 16.2925 15.9949 15.2175 15.9949 14.142C15.9949 11.7003 15.9949 9.25913 15.9949 6.81831C15.9949 6.1271 15.5639 5.65318 14.9617 5.6556C14.3473 5.6556 13.9406 6.12044 13.94 6.82013C13.94 7.75465 13.94 8.68917 13.94 9.6237C13.94 11.0707 13.94 12.5177 13.94 13.9646C13.94 14.4488 13.6979 14.7878 13.2905 14.9022C12.681 15.0747 12.1333 14.6395 12.1315 13.964C12.1218 12.1531 12.1254 10.3446 12.1254 8.53604V8.53423Z" fill="#01C5FF"/>
</svg>
