<svg width="46" height="35" viewBox="0 0 46 35" fill="none" xmlns="http://www.w3.org/2000/svg">
<path d="M22.9453 14.9937C27.0345 14.9937 30.442 11.586 30.442 7.49685C30.442 3.40766 27.0345 0 22.9453 0C18.8561 0 15.4484 3.40766 15.4484 7.49685C15.4484 11.586 18.8561 14.9937 22.9453 14.9937ZM22.9453 2.72612C25.4443 2.72612 27.716 4.77072 27.716 7.49685C27.716 9.9958 25.6714 12.2675 22.9453 12.2675C20.2192 12.2675 18.1744 10.223 18.1744 7.49685C18.1744 4.9979 20.2192 2.72612 22.9453 2.72612Z" fill="#4F5763"/>
<path d="M37.0295 14.5398C40.2099 14.5398 42.7089 12.0408 42.7089 8.86036C42.7089 5.67989 40.2099 3.18094 37.0295 3.18094C33.849 3.18094 31.35 5.67989 31.35 8.86036C31.5772 12.0408 34.0762 14.5398 37.0295 14.5398ZM37.0295 6.13425C38.6197 6.13425 39.9829 7.49732 39.9829 9.08755C39.9829 10.6778 38.6197 12.0409 37.0295 12.0409C35.4392 12.0409 34.076 10.6778 34.076 9.08755C34.076 7.27014 35.4392 6.13425 37.0295 6.13425Z" fill="#4F5763"/>
<path d="M39.9834 16.1291H34.3039C32.7137 16.1291 31.1234 16.8106 29.9875 17.9465C28.8516 17.265 27.4884 17.0378 26.1254 17.0378H19.5374C18.1744 17.0378 16.8112 17.4922 15.6753 18.1737C14.5394 17.0378 13.1763 16.3563 11.3588 16.3563H5.67942C2.49895 16.3563 0 18.8552 0 22.0357V24.0803C0 24.7619 0.681753 25.4434 1.36328 25.4434H11.3588V33.6218C11.3588 34.3033 12.0406 34.9848 12.7221 34.9848H32.9407C33.6222 34.9848 34.3039 34.3033 34.3039 33.6218V25.4434H44.2995C44.981 25.4434 45.6628 24.7619 45.6628 24.0803V22.0357C45.6628 18.6281 42.9367 16.1291 39.9834 16.1291ZM2.72629 21.8086C2.72629 20.2183 4.08919 18.8553 5.67942 18.8553H11.3588C12.2676 18.8553 12.9491 19.0824 13.4035 19.7639C12.722 20.6727 12.0405 21.5814 11.8134 22.7173H2.72629V21.8086ZM31.5777 32.2587H14.0851V25.2162C14.0851 22.2629 16.5841 19.7639 19.5374 19.7639H26.1254C29.0787 19.7639 31.5777 22.2629 31.5777 25.2162V32.2587ZM42.9365 22.7173H33.8494C33.3951 21.5814 32.9408 20.6727 32.2593 19.7639C32.9408 19.0824 33.6224 18.8553 34.3039 18.8553H39.9834C41.5736 18.8553 42.9365 20.2183 42.9365 21.8086V22.7173Z" fill="#4F5763"/>
<path d="M8.63371 14.5398C11.8142 14.5398 14.3131 12.0408 14.3131 8.86036C14.3131 5.67989 11.8142 3.18094 8.63371 3.18094C5.45323 3.18094 2.95428 5.67989 2.95428 8.86036C2.95428 12.0408 5.45323 14.5398 8.63371 14.5398ZM8.63371 6.13425C10.2239 6.13425 11.5871 7.49732 11.5871 9.08755C11.5871 10.6778 10.2239 12.0409 8.63371 12.0409C7.04347 12.0409 5.6803 10.6778 5.6803 9.08755C5.6803 7.27014 7.04347 6.13425 8.63371 6.13425Z" fill="#4F5763"/>
</svg>
