<svg width="34" height="38" viewBox="0 0 34 38" fill="none" xmlns="http://www.w3.org/2000/svg">
<path d="M0 28.7237C0.0870807 28.2114 0.152648 27.689 0.264316 27.1788C0.702793 25.1595 2.01515 23.9455 3.90326 23.2724C5.66742 22.6444 7.50738 22.4119 9.35964 22.2736C13.6297 21.956 17.9069 21.9785 22.182 22.1291C24.5998 22.2152 27.0155 22.3699 29.3616 23.0399C29.767 23.1581 30.1655 23.299 30.5551 23.462C32.352 24.2037 33.4462 25.5324 33.7822 27.4482C34.0823 29.1162 34.0722 30.8253 33.7525 32.4897C33.3939 34.3337 32.3182 35.5887 30.6094 36.3253C29.3278 36.8775 27.9765 37.1582 26.6026 37.3242C22.1277 37.8661 17.6333 37.8098 13.1389 37.7186C10.757 37.6705 8.37614 37.569 6.0352 37.0916C5.14631 36.9128 4.27436 36.6581 3.42893 36.3304C1.49062 35.5713 0.443599 34.0879 0.150599 32.0481C0.105521 31.7346 0.0481507 31.4222 0.0010247 31.1097L0 28.7237ZM16.9982 25.0899V25.262C15.4102 25.262 13.8223 25.2107 12.2364 25.2763C10.6505 25.3419 9.04512 25.4915 7.45616 25.6595C6.3866 25.7732 5.33753 26.0139 4.35916 26.4913C4.08911 26.6116 3.85171 26.7947 3.66674 27.0253C3.48176 27.2559 3.35457 27.5273 3.29575 27.817C3.06729 28.8528 3.05192 29.8977 3.139 30.9489C3.28345 32.7161 3.69632 33.2222 5.41232 33.7231C7.08325 34.2108 8.80437 34.3839 10.5286 34.4628C15.6346 34.6954 20.7416 34.7702 25.8374 34.2497C27.0667 34.1237 28.2961 33.9055 29.4486 33.4117C30.177 33.1044 30.6145 32.5778 30.7497 31.7859C30.9361 30.6085 30.9506 29.4104 30.7928 28.2289C30.677 27.2689 30.1637 26.6532 29.256 26.3121C27.9925 25.8491 26.6669 25.5777 25.3231 25.5068C22.5478 25.3327 19.7724 25.2251 16.9982 25.0899Z" fill="#4F5763"/>
<path d="M16.9809 18.8873C11.8646 18.8801 7.7114 14.6357 7.72881 9.43238C7.74623 4.20754 11.8913 -0.00614016 17.0055 6.71669e-06C22.1197 0.00615359 26.276 4.25774 26.2668 9.45799C26.2575 14.6582 22.0941 18.8934 16.9809 18.8873ZM23.178 9.44365C23.178 5.98194 20.4006 3.15028 17.0034 3.14618C13.5827 3.14618 10.8166 5.97067 10.8227 9.46517C10.8299 12.9392 13.5888 15.7391 17.0055 15.737C20.4221 15.735 23.178 12.9095 23.178 9.44365Z" fill="#4F5763"/>
</svg>
