<svg width="40" height="40" viewBox="0 0 40 40" fill="none" xmlns="http://www.w3.org/2000/svg">
<path d="M40 4.05886V23.5927C39.9749 23.6381 39.9553 23.6863 39.9417 23.7364C39.676 25.7294 37.881 27.7432 35.0087 27.7255C28.8402 27.688 22.6717 27.714 16.5032 27.714C12.6138 27.714 8.7244 27.714 4.835 27.714C3.17541 27.714 1.83982 27.0525 0.852194 25.7075C0.388592 25.0751 0.178148 24.3417 0 23.5937V4.05886C0.030192 3.99139 0.0552653 3.92174 0.0750091 3.8505C0.322958 2.60034 0.935539 1.54916 2.0138 0.870947C2.63889 0.481313 3.37544 0.284412 4.06303 0H35.9422C36.0244 0.0312748 36.1082 0.0580544 36.1933 0.0802192C37.5747 0.371924 38.6602 1.10535 39.3499 2.33676C39.6416 2.86392 39.7864 3.48066 40 4.05886ZM20.0026 3.12124H4.88397C3.73799 3.12124 3.1202 3.74632 3.1202 4.8798V22.8113C3.1202 23.9677 3.74528 24.5886 4.9121 24.5886H35.0712C36.2589 24.5886 36.8746 23.9708 36.8746 22.7832V4.93085C36.8746 3.73174 36.2693 3.12124 35.0816 3.12124H20.0026Z" fill="#4F5763"/>
<path d="M25.545 40.001C24.9095 39.7531 24.2407 39.5656 23.6469 39.2416C22.8509 38.8071 22.2925 38.1081 21.9331 37.2726C21.8154 36.9965 21.6664 36.9267 21.3809 36.9277C15.8733 36.9368 10.3653 36.9388 4.85692 36.934C3.85992 36.934 3.2265 36.4475 3.08586 35.5796C3.05536 35.3732 3.06701 35.1628 3.12011 34.961C3.1732 34.7593 3.26664 34.5704 3.39478 34.4057C3.52291 34.2411 3.68309 34.1041 3.86564 34.0031C4.04818 33.9021 4.24931 33.8391 4.45687 33.818C4.63814 33.8023 4.82046 33.8065 5.00277 33.8065C10.4465 33.8065 15.8896 33.8065 21.332 33.8065C21.6445 33.8065 21.7977 33.7294 21.9425 33.4314C22.7926 31.675 24.223 30.728 26.1649 30.7342C28.1068 30.7405 29.5205 31.7156 30.3644 33.47C30.4853 33.7211 30.6092 33.8086 30.8853 33.8065C32.4095 33.795 33.9326 33.7898 35.4557 33.8065C36.2256 33.8169 36.81 34.3951 36.9142 35.1785C36.9565 35.5304 36.8759 35.886 36.686 36.1852C36.4962 36.4844 36.2088 36.7088 35.8724 36.8204C35.6354 36.8882 35.3896 36.9205 35.1432 36.9163C33.7232 36.9246 32.3042 36.9267 30.8853 36.9163C30.6176 36.9163 30.4863 36.9892 30.3644 37.2465C29.6789 38.7123 28.5329 39.6093 26.9358 39.9167C26.8622 39.9361 26.7898 39.9601 26.7191 39.9885L25.545 40.001ZM27.6536 35.365C27.654 35.0663 27.5659 34.7742 27.4005 34.5255C27.235 34.2768 26.9995 34.0827 26.7238 33.9678C26.4481 33.8528 26.1445 33.8221 25.8514 33.8795C25.5583 33.9369 25.2887 34.0799 25.0768 34.2904C24.8648 34.5009 24.72 34.7695 24.6606 35.0622C24.6011 35.3549 24.6297 35.6587 24.7428 35.9352C24.8559 36.2117 25.0483 36.4485 25.2959 36.6156C25.5434 36.7828 25.8349 36.873 26.1336 36.8746C26.5346 36.8732 26.9188 36.7141 27.2033 36.4316C27.4877 36.1491 27.6495 35.7659 27.6536 35.365Z" fill="#4F5763"/>
<path d="M13.8445 13.8653C13.8445 12.4068 13.8445 10.9483 13.8445 9.48973C13.8445 8.09475 14.8446 7.39258 16.149 7.87806C20.1328 9.35742 24.1146 10.8416 28.0943 12.3307C29.0048 12.6714 29.4059 13.3475 29.2194 14.206C29.084 14.831 28.6589 15.1707 28.0849 15.3832C25.7096 16.2639 23.3353 17.1491 20.9621 18.0388C19.3647 18.6333 17.7693 19.2275 16.1761 19.8213C14.854 20.313 13.8476 19.6129 13.8445 18.2013C13.8424 16.7566 13.8424 15.3113 13.8445 13.8653ZM23.2374 13.8518L16.9866 11.5233V16.1802L23.2374 13.8518Z" fill="#4F5763"/>
</svg>
