<svg width="25" height="25" viewBox="0 0 25 25" fill="none" xmlns="http://www.w3.org/2000/svg">
<path d="M25 5.71053V19.2787C24.9812 19.3404 24.9662 19.4031 24.955 19.4665C24.6075 22.5565 21.9746 24.9664 18.867 24.9821C14.6292 25.0038 10.3909 25.0038 6.15227 24.9821C2.7995 24.9645 0.0342318 22.1979 0.0166269 18.8445C-0.0055423 14.6145 -0.0055423 10.3845 0.0166269 6.15456C0.0264074 3.51903 1.753 1.16454 4.25486 0.339063C4.72889 0.183227 5.23291 0.110846 5.72063 0H19.2888C19.3421 0.0177204 19.3966 0.0316659 19.4518 0.0417312C20.6885 0.177867 21.8558 0.682074 22.8026 1.48908C23.7495 2.29608 24.4323 3.36873 24.7627 4.56816C24.8676 4.94178 24.9224 5.32909 25 5.71053ZM12.4972 22.9053C14.5311 22.9053 16.5646 22.9053 18.5977 22.9053C18.8336 22.9116 19.0697 22.8998 19.3038 22.8701C21.4627 22.5324 22.9083 20.8488 22.9109 18.6606C22.9157 14.5528 22.9157 10.445 22.9109 6.33713C22.9154 6.02829 22.8883 5.7198 22.83 5.41646C22.4245 3.476 20.782 2.10477 18.7972 2.0976C14.5994 2.08065 10.4022 2.09238 6.20509 2.0976C6.02614 2.0958 5.84734 2.10844 5.67042 2.13542C3.53761 2.48491 2.10248 4.16455 2.09988 6.32735C2.09509 10.4434 2.09509 14.5595 2.09988 18.6756C2.09612 18.9843 2.12431 19.2927 2.18399 19.5956C2.60455 21.5661 4.26006 22.8995 6.29963 22.9086C8.36593 22.9099 10.4322 22.9053 12.4972 22.9053Z" fill="white"/>
<path d="M13.5405 11.4576H13.8665C15.1432 11.4576 16.4199 11.451 17.6966 11.4576C18.4418 11.4628 18.9354 12.1526 18.6942 12.8353C18.5435 13.2663 18.1615 13.5258 17.6509 13.5271C16.3905 13.5271 15.1301 13.5271 13.8691 13.5271H13.5431V13.8277C13.5431 15.1129 13.5496 16.3974 13.5398 17.6819C13.534 18.4187 12.8643 18.9038 12.1842 18.6854C11.7396 18.5426 11.4709 18.1559 11.467 17.6369C11.467 16.3765 11.467 15.1168 11.467 13.8551V13.5291H11.1658C9.88127 13.5291 8.5961 13.5356 7.31159 13.5291C6.57544 13.5239 6.08968 12.8542 6.30811 12.1735C6.45156 11.7282 6.83625 11.4608 7.35592 11.4563C8.61631 11.4563 9.87669 11.4563 11.1377 11.4563H11.4677V11.1557C11.4677 9.87116 11.4611 8.58664 11.4677 7.30148C11.4735 6.55621 12.1627 6.06653 12.8461 6.30387C13.2777 6.45384 13.5366 6.83528 13.5379 7.34713C13.5379 8.60751 13.5379 9.8679 13.5379 11.1289L13.5405 11.4576Z" fill="white"/>
</svg>
