<svg width="29" height="30" viewBox="0 0 29 30" fill="none" xmlns="http://www.w3.org/2000/svg">
<path d="M27.9614 11.1277C27.8762 11.0942 27.7923 11.0607 27.7085 11.0231L22.1101 8.67565L6.87108 2.2892C6.12347 1.97621 5.37564 1.66321 4.62758 1.35022C3.67965 0.954504 2.73194 0.558119 1.78446 0.161062C1.08492 -0.132706 0.487994 -0.0146617 0.180141 0.434039C-0.127712 0.88274 0.0460001 1.79557 0.0748403 1.85459C2.13658 8.99088 4.1981 16.1274 6.2594 23.2641L6.57329 24.3487C7.00925 25.8584 7.46063 27.4198 7.90061 28.9564C7.97372 29.2119 8.19572 29.9893 9.12196 30H9.14879C9.90602 29.9651 10.1743 29.3508 10.3037 29.0556C11.0777 27.2868 11.8528 25.519 12.6291 23.7524C13.5224 21.7161 14.4467 19.6115 15.3521 17.539C15.4407 17.3378 15.5118 17.2707 15.6962 17.215C17.8592 16.5645 20.0558 15.8877 22.1745 15.2331L23.9747 14.6778L25.3161 14.2626C26.1498 14.0051 27.011 13.7388 27.8594 13.4806C28.6334 13.2445 28.8152 12.7327 28.8319 12.3444C28.8487 11.9561 28.7132 11.4242 27.9614 11.1277ZM24.1605 12.1217L22.6608 12.5838C20.0256 13.3954 17.3019 14.2344 14.6191 15.0467C13.9906 15.2371 13.5956 15.5879 13.338 16.1835C12.2649 18.6718 11.1535 21.1957 10.0811 23.637L9.33659 25.3326L2.95015 3.23825L24.1605 12.1217Z" fill="white"/>
</svg>
