<svg width="23" height="21" viewBox="0 0 23 21" fill="none" xmlns="http://www.w3.org/2000/svg">
<path d="M17.3048 20.2554C17.2692 20.3991 17.1987 20.5322 17.0993 20.6431C16.9999 20.7539 16.8746 20.8393 16.7342 20.8916C16.5745 20.9464 16.4038 20.9626 16.2364 20.9391C16.0689 20.9156 15.9096 20.8529 15.7718 20.7564C14.5658 19.9692 13.3463 19.1634 12.1653 18.3844L10.8011 17.485L9.01405 16.3069C6.56527 14.6946 4.03283 13.0274 1.54863 11.3787C1.33933 11.2426 1.16638 11.0588 1.0444 10.8428C0.818291 10.4057 0.988628 9.94186 1.50265 9.6029C3.7105 8.14749 5.9191 6.69257 8.12845 5.23815L11.4794 3.03124C12.8959 2.09764 14.3126 1.16329 15.7295 0.228196C15.9632 0.0735866 16.169 0 16.3747 0C16.4461 0.000313559 16.5172 0.0090458 16.5865 0.0260143C17.2136 0.174678 17.3455 0.689797 17.3455 1.09342C17.3455 3.38432 17.3455 5.67547 17.3455 7.96686V12.0707C17.3455 14.6436 17.3455 17.2162 17.3455 19.7886V19.8042C17.3505 19.9556 17.3368 20.1072 17.3048 20.2554ZM15.3813 3.19477C15.3813 3.15438 15.3701 3.11475 15.3491 3.08013C15.328 3.0455 15.2977 3.01717 15.2616 2.99817C15.2255 2.97916 15.1848 2.97019 15.1439 2.97222C15.103 2.97425 15.0634 2.9872 15.0294 3.00969L3.96877 10.2942C3.93767 10.3145 3.91217 10.3421 3.89452 10.3746C3.87688 10.407 3.86765 10.4432 3.86765 10.48C3.86765 10.5168 3.87688 10.553 3.89452 10.5855C3.91217 10.6179 3.93767 10.6455 3.96877 10.6658L15.0294 17.9503C15.0667 17.9747 15.1105 17.9877 15.1552 17.9875C15.1923 17.9876 15.2288 17.9786 15.2615 17.9615C15.2977 17.9425 15.328 17.9141 15.3491 17.8794C15.3702 17.8447 15.3814 17.805 15.3813 17.7645V3.19477Z" fill="#D2D3DF"/>
<path d="M22.3394 19.667C22.3344 19.8895 22.2486 20.1027 22.0975 20.268C21.9465 20.4332 21.7402 20.5394 21.5163 20.5672C21.0016 20.6266 20.5697 20.3523 20.4423 19.8855C20.4083 19.723 20.3949 19.557 20.4024 19.3912C20.4024 14.7827 20.4024 6.17412 20.4024 1.56555V1.53285C20.4024 1.42432 20.4024 1.32249 20.4114 1.22288C20.4353 1.00592 20.5348 0.80384 20.6928 0.651086C20.8509 0.498332 21.0577 0.404355 21.2782 0.385166C21.3098 0.385166 21.3407 0.385166 21.3709 0.385166C21.6139 0.378149 21.8503 0.463583 22.0311 0.62377C22.2339 0.809599 22.3454 1.09578 22.3462 1.42878C22.3462 3.09183 22.3462 6.75438 22.3462 8.41644V15.8516C22.3462 16.1984 22.3462 16.5453 22.3462 16.8922C22.3454 17.8005 22.3499 18.7423 22.3394 19.667Z" fill="#D2D3DF"/>
</svg>
