<svg width="18" height="20" viewBox="0 0 18 20" fill="none" xmlns="http://www.w3.org/2000/svg">
<path d="M17.4 3.67498L13.8 0.075C13.7 -0.025 13.4 -0.025 13.3 0.075L12.8 0.575C12.7 0.675 12.7 0.975 12.8 1.075L14.8 3.075H4.5C2.2 3.075 0.300018 4.97501 0.300018 7.27501V9.67498C0.300018 9.87498 0.500012 10.075 0.700012 10.075H1.5C1.7 10.075 1.90002 9.87498 1.90002 9.67498V7.27501C1.90002 5.77501 3.10001 4.575 4.60001 4.575H14.9L12.9 6.575C12.8 6.675 12.8 6.975 12.9 7.075L13.4 7.575C13.5 7.675 13.8 7.675 13.9 7.575L17.5 3.97496C17.5 4.07496 17.5 3.77498 17.4 3.67498Z" fill="#D2D3DF"/>
<path d="M17 9.57501H16.2C16 9.57501 15.8 9.77498 15.8 9.97498V12.375C15.8 13.875 14.6 15.075 13.1 15.075H2.80002L4.80002 13.075C4.90002 12.975 4.90002 12.675 4.80002 12.575L4.30002 12.075C4.20002 11.975 4.1 11.975 4 11.975C3.9 11.975 3.80001 11.975 3.70001 12.075L0.100006 15.675C6.10203e-06 15.775 0 15.875 0 15.975C0 16.075 6.10203e-06 16.175 0.100006 16.275L3.70001 19.875C3.80001 19.975 3.9 19.975 4 19.975C4.1 19.975 4.20002 19.975 4.30002 19.875L4.80002 19.375C4.90002 19.275 4.90002 18.975 4.80002 18.875L2.80002 16.875H13.1C15.4 16.875 17.3 14.975 17.3 12.675V9.875C17.3 9.675 17.2 9.57501 17 9.57501Z" fill="#D2D3DF"/>
</svg>
