<svg width="46" height="46" viewBox="0 0 46 46" fill="none" xmlns="http://www.w3.org/2000/svg">
<path d="M30.5033 27.828C29.8287 26.5171 28.681 25.8617 27.0868 25.8677C25.6607 25.8773 24.2058 25.8749 22.806 25.8677H20.9802H20.8433C20.8433 25.5075 20.8433 25.157 20.8433 24.8065C20.8433 23.7573 20.8505 22.7657 20.8349 21.7561C20.7929 19.1212 19.4748 17.3493 17.1219 16.7659C16.5008 16.627 15.8676 16.549 15.2312 16.533C15.028 16.5152 14.8233 16.5392 14.6297 16.6034C14.436 16.6676 14.2576 16.7707 14.1052 16.9064C13.8159 17.1813 13.6611 17.5858 13.6563 18.0792C13.6515 18.5726 13.6563 19.0515 13.6563 19.5377C13.6563 19.8306 13.6563 20.1239 13.6563 20.4177C13.6563 20.737 13.6743 21.0611 13.6923 21.378C13.7331 22.0899 13.7727 22.7609 13.6022 23.3599C13.4318 23.959 13.0368 24.5376 12.6227 25.1354C12.4438 25.3923 12.2625 25.66 12.0933 25.9313C12.0633 25.9805 12.0333 26.0333 12.0044 26.0862C11.956 26.1904 11.8898 26.2855 11.8088 26.3671C11.2818 26.7368 10.7404 27.0873 10.1666 27.4607C10.1318 27.4847 10.0957 27.5075 10.0597 27.5303C10.0177 26.3394 9.50272 25.8701 8.25906 25.8701H1.70823C0.559405 25.8701 0.00120044 26.4211 0 27.5507V44.3089C0 45.4469 0.555802 46.0003 1.69863 46.0003H3.72498C5.16551 46.0003 6.65646 46.0003 8.12101 46.0003H8.25186C8.71523 46.0003 9.24462 45.9727 9.61676 45.6282C9.75841 45.6618 9.89766 45.7002 10.0345 45.7362C10.4623 45.8736 10.9062 45.9543 11.355 45.9763C15.7702 46.0039 20.5612 46.0075 26.0004 45.9859C27.6018 45.9859 29.0268 44.7951 29.3881 43.1685C29.5682 42.3546 29.4601 41.5491 29.0568 40.7136C30.2776 39.4339 30.5177 37.9826 29.777 36.392C30.4231 35.7938 30.8228 34.9763 30.8983 34.0991C30.9824 33.2109 30.7315 32.3233 30.1948 31.6106C31.0495 30.4078 31.1575 29.1017 30.5033 27.828ZM26.2213 34.4977C25.8984 34.4977 25.5755 34.4977 25.2526 34.4977C24.8504 34.4927 24.461 34.6388 24.1614 34.907C24.0191 35.0404 23.9067 35.2025 23.8315 35.3825C23.7564 35.5625 23.7203 35.7564 23.7256 35.9514C23.7364 36.7569 24.369 37.3535 25.2322 37.3703C25.447 37.3703 25.6619 37.3703 25.8708 37.3703C26.0797 37.3703 26.3137 37.3703 26.5334 37.3703C26.9956 37.3799 27.3161 37.6764 27.3137 38.0906C27.3113 38.5048 26.992 38.7929 26.5202 38.8025C26.3186 38.8025 26.1121 38.8025 25.9116 38.8025C25.6715 38.8025 25.4182 38.8025 25.1685 38.8025C24.3462 38.8289 23.728 39.4459 23.728 40.237C23.728 41.0281 24.3474 41.6391 25.1685 41.6775C25.2886 41.6775 25.4086 41.6775 25.5287 41.6775C25.6667 41.6775 25.7976 41.6775 25.9236 41.6835C26.1056 41.6933 26.277 41.7723 26.4027 41.9043C26.5284 42.0364 26.5988 42.2115 26.5996 42.3938C26.6004 42.5761 26.5314 42.7517 26.4068 42.8848C26.2823 43.0179 26.1115 43.0984 25.9296 43.1097C25.848 43.1169 25.7579 43.1097 25.6631 43.1097H11.7656C10.6215 43.1097 10.0657 42.5611 10.0657 41.429V38.7761C10.0657 36.2947 10.0657 33.7282 10.0573 31.2049C10.0573 30.9996 10.0921 30.9336 10.2566 30.8303C10.8028 30.4882 11.3502 30.1293 11.8796 29.7811C12.2986 29.5074 12.7307 29.2229 13.1593 28.9504C13.6395 28.6467 14.1725 28.2386 14.5326 27.5099C14.9231 26.7623 15.356 26.0377 15.8291 25.3395L16.14 24.8593C16.4161 24.4369 16.556 23.94 16.5409 23.4356C16.5289 22.414 16.5313 21.4152 16.5337 20.3588C16.5337 20.1019 16.5337 19.845 16.5337 19.5869C17.392 19.827 17.8134 20.3396 17.8818 21.2243C17.9502 22.1091 17.9563 22.9854 17.9611 23.8497C17.9611 24.149 17.9635 24.4471 17.9683 24.7441C17.9683 25.1966 17.9683 25.6576 17.9683 26.103C17.9683 26.4631 17.9683 26.8124 17.9683 27.1678C17.9755 28.1653 18.5541 28.7391 19.5552 28.7403C20.7037 28.7403 21.8521 28.7403 23.0005 28.7403C24.397 28.7403 25.7936 28.7403 27.1901 28.7403C27.3341 28.7336 27.4776 28.763 27.6074 28.8259C27.7372 28.8888 27.8492 28.9832 27.9332 29.1005C27.9926 29.1944 28.027 29.302 28.0328 29.413C28.0387 29.524 28.016 29.6346 27.9668 29.7343C27.9112 29.8738 27.8125 29.9919 27.6851 30.0713C27.5577 30.1508 27.4082 30.1875 27.2585 30.1761H26.3906C26.022 30.1761 25.6535 30.1761 25.285 30.1761C24.381 30.1845 23.74 30.7643 23.7244 31.5878C23.7176 31.7721 23.7481 31.956 23.8141 32.1282C23.8801 32.3005 23.9803 32.4576 24.1085 32.5902C24.2658 32.7411 24.4513 32.8596 24.6544 32.9387C24.8575 33.0178 25.0742 33.056 25.2922 33.0511C25.5887 33.0511 25.8852 33.0511 26.1805 33.0511C26.5226 33.0511 26.8756 33.0511 27.2225 33.0511C27.4545 33.0454 27.6793 33.1317 27.8479 33.2912C27.9099 33.3563 27.9582 33.4332 27.9897 33.5174C28.0213 33.6015 28.0355 33.6912 28.0316 33.781C28.0232 34.2024 27.7075 34.4785 27.2273 34.4845C26.8936 34.5001 26.5514 34.4989 26.2213 34.4977ZM6.05384 42.7735C6.24926 42.5677 6.37951 42.3087 6.42823 42.0291C6.47696 41.7494 6.442 41.4617 6.32774 41.2018C6.21347 40.942 6.025 40.7217 5.78598 40.5687C5.54696 40.4156 5.26804 40.3365 4.98425 40.3414C4.61232 40.3553 4.26005 40.512 4.0007 40.779C3.74135 41.0459 3.59487 41.4026 3.59173 41.7748C3.59452 42.0591 3.68046 42.3365 3.83895 42.5726C3.99743 42.8087 4.22154 42.9933 4.48366 43.1037H2.90027V28.7848H7.15705V43.1037H5.57487C5.75698 43.0272 5.92189 42.9149 6.05984 42.7735H6.05384Z" fill="#4F5763"/>
<path d="M32.7496 10.9552H32.5743C34.2669 9.95164 35.2705 8.08495 35.016 6.15344C34.6415 3.32039 32.7532 1.62176 29.9621 1.61215C28.3247 1.61215 26.5541 1.61215 24.3909 1.61215C23.8975 1.61215 23.4918 1.76701 23.2156 2.05632C22.9395 2.34562 22.8111 2.74417 22.8315 3.22315C22.8927 4.66368 23.5674 5.84372 24.835 6.72245C24.8934 6.76148 24.9423 6.81318 24.9779 6.8737C25.218 8.78841 26.0019 10.1149 27.3968 10.9552H27.1507C25.1099 10.9792 23.559 12.5338 23.5494 14.5686C23.5386 16.3812 23.5422 18.2227 23.5494 20.0042V20.8601C23.5494 21.8733 24.1388 22.4543 25.1616 22.4555H29.9838H34.8636C35.9092 22.4555 36.4866 21.8757 36.4878 20.8265C36.4878 18.8085 36.4938 16.7233 36.4878 14.6706C36.4758 12.493 34.9404 10.9636 32.7496 10.9552ZM30.009 8.79441H29.9886C29.5521 8.78978 29.1278 8.64974 28.7743 8.39364C28.4207 8.13754 28.1555 7.77801 28.015 7.36468C28.458 7.38389 28.8974 7.36468 29.3259 7.35508C30.2346 7.32507 31.099 7.29506 31.9249 7.58316C31.6608 8.25901 30.8445 8.79681 30.009 8.79681V8.79441ZM27.7713 4.48602L27.1387 4.49562C27.0669 4.49795 26.9951 4.49474 26.9238 4.48602H27.7713ZM32.7412 13.8327C33.3414 13.8327 33.6079 14.098 33.6103 14.6874C33.6103 15.9155 33.6103 17.1435 33.6103 18.3848V19.5624H26.4208V18.7521C26.4208 17.4068 26.4208 16.0607 26.4208 14.7138C26.4208 14.0896 26.6789 13.8339 27.3068 13.8327C29.2467 13.8291 31.0221 13.8291 32.7412 13.8327Z" fill="#4F5763"/>
<path d="M39.5365 5.0264C39.5365 5.26649 39.5365 5.48737 39.5365 5.71185C39.5605 6.54376 40.1512 7.16079 40.9386 7.1788H40.9747C41.767 7.1788 42.3804 6.55697 42.4068 5.71786C42.4152 5.49097 42.4128 5.26529 42.4068 5.0264C42.6277 5.0264 42.8366 5.0264 43.0454 5.0264C43.9386 5.00719 44.5748 4.39136 44.5592 3.56186C44.5424 2.76236 43.9085 2.17054 43.049 2.15254C42.8365 2.15254 42.6265 2.15254 42.4068 2.15254C42.4068 1.93165 42.4068 1.72278 42.4068 1.5139C42.3888 0.620767 41.7754 -0.0106675 40.9434 0.00013654C40.144 0.0145419 39.5497 0.649577 39.5329 1.5079C39.5329 1.72157 39.5329 1.93165 39.5329 2.15254C39.312 2.15254 39.1032 2.15254 38.8955 2.15254C38.0024 2.17054 37.3649 2.78517 37.3805 3.61468C37.3949 4.41417 38.03 5.00839 38.8883 5.0264C39.1032 5.0288 39.3156 5.0276 39.5365 5.0264Z" fill="#4F5763"/>
<path d="M15.9504 12.2139C16.1401 12.2139 16.3309 12.2139 16.5338 12.2139V12.5896C16.5338 13.6928 17.0668 14.3567 17.9575 14.3663H17.9755C18.1521 14.3718 18.328 14.3421 18.4929 14.2788C18.6578 14.2155 18.8084 14.12 18.9359 13.9977C19.2528 13.6832 19.4161 13.2018 19.4161 12.5668V12.2139H19.5241C20.0259 12.2139 21.5529 12.2139 21.5649 10.7901C21.5749 10.6145 21.5489 10.4387 21.4884 10.2736C21.4279 10.1084 21.3342 9.95737 21.2131 9.82979C20.8818 9.49487 20.3512 9.33761 19.5421 9.33641H19.4161C19.4161 9.10952 19.4161 8.89585 19.4161 8.68217C19.3957 7.82265 18.799 7.19241 17.996 7.18281H17.9755C17.158 7.18281 16.5554 7.82025 16.535 8.70497C16.535 8.91385 16.535 9.12273 16.535 9.33521C16.3213 9.33521 16.1269 9.33521 15.9348 9.33521C15.0321 9.34841 14.3958 9.93543 14.3862 10.7553C14.3742 11.6076 15.0164 12.2079 15.9504 12.2139Z" fill="#4F5763"/>
<path d="M43.7851 22.2778C43.5714 22.2778 43.3601 22.2778 43.1393 22.2778C43.1393 22.0581 43.1393 21.8504 43.1393 21.6427C43.1213 20.7592 42.5198 20.1254 41.7047 20.1254H41.6807C40.8788 20.1374 40.2834 20.77 40.2654 21.6295C40.2654 21.8444 40.2654 22.0557 40.2654 22.2778C40.0253 22.2778 39.8068 22.2778 39.5835 22.2778C38.7324 22.303 38.0998 22.9284 38.113 23.7351C38.1262 24.5418 38.7372 25.1216 39.5679 25.1492C39.796 25.1564 40.0241 25.1552 40.2654 25.1492C40.2654 25.3713 40.2654 25.5778 40.2654 25.7831C40.2822 26.6678 40.8836 27.3016 41.6987 27.3016H41.7251C42.5246 27.2884 43.1201 26.6558 43.1393 25.7963C43.1393 25.5814 43.1393 25.3713 43.1393 25.1492C43.3589 25.1492 43.5666 25.1492 43.7743 25.1492C44.6674 25.1312 45.3049 24.5178 45.2905 23.6895C45.2736 22.8912 44.6398 22.291 43.7851 22.2778Z" fill="#4F5763"/>
</svg>
