<svg width="20" height="5" viewBox="0 0 20 5" fill="none" xmlns="http://www.w3.org/2000/svg">
<path d="M2.3288 4.6576C3.61495 4.6576 4.65756 3.61495 4.65756 2.3288C4.65756 1.04265 3.61495 0 2.3288 0C1.04265 0 0 1.04265 0 2.3288C0 3.61495 1.04265 4.6576 2.3288 4.6576Z" fill="white"/>
<path d="M10 4.6576C11.2862 4.6576 12.3288 3.61495 12.3288 2.3288C12.3288 1.04265 11.2862 0 10 0C8.71385 0 7.6712 1.04265 7.6712 2.3288C7.6712 3.61495 8.71385 4.6576 10 4.6576Z" fill="white"/>
<path d="M17.6711 4.6576C18.9573 4.6576 19.9999 3.61495 19.9999 2.3288C19.9999 1.04265 18.9573 0 17.6711 0C16.385 0 15.3423 1.04265 15.3423 2.3288C15.3423 3.61495 16.385 4.6576 17.6711 4.6576Z" fill="white"/>
</svg>
