<svg width="38" height="39" viewBox="0 0 38 39" fill="none" xmlns="http://www.w3.org/2000/svg">
<path d="M37.9968 19.0023C37.9968 23.9491 37.9968 28.8959 37.9968 33.8428C37.9968 35.7903 36.8047 37.3691 34.9703 37.8554C34.5874 37.9526 34.1937 38.0005 33.7986 37.9979C23.9322 38.0047 14.0665 38.0047 4.2015 37.9979C1.76768 37.9979 0.00113096 36.2313 0 33.7975C0 23.9318 0 14.0661 0 4.20037C0 1.76655 1.76655 0.00113096 4.20037 0C14.0661 0 23.9318 0 33.7975 0C36.2336 0 37.9945 1.76203 37.9968 4.19924C38.002 9.13549 38.002 14.0699 37.9968 19.0023ZM2.73013 28.473H35.2485V9.5317H2.73013V28.473ZM17.6169 6.77104V2.74596H10.8821V6.7733L17.6169 6.77104ZM20.3821 2.73805V6.76086H27.1102V2.73805H20.3821ZM10.873 35.2598H17.6056V31.2461H10.873V35.2598ZM27.1203 31.2461H20.3878V35.2666H27.1203V31.2461ZM8.12253 2.72334C6.70431 2.72334 5.32341 2.70525 3.94365 2.73126C3.63643 2.74552 3.34488 2.87097 3.12329 3.08424C2.9017 3.2975 2.76518 3.58405 2.73918 3.89049C2.69507 4.84389 2.72787 5.79955 2.72787 6.76425H8.12253V2.72334ZM8.11009 35.2858V31.2461H2.7143C2.7143 32.1927 2.69394 33.1088 2.72108 34.0237C2.73271 34.3541 2.86962 34.6677 3.10403 34.9009C3.33843 35.134 3.65277 35.2692 3.98323 35.2791C5.34603 35.3028 6.71336 35.2858 8.11009 35.2858ZM35.2791 31.2461H29.8821V35.2858C31.28 35.2858 32.6473 35.3028 34.0147 35.2791C34.3444 35.2678 34.6575 35.1316 34.8906 34.8981C35.1237 34.6646 35.2593 34.3512 35.27 34.0214C35.2994 33.1076 35.2791 32.1916 35.2791 31.2461ZM35.2791 6.76991C35.2791 5.80181 35.3107 4.85859 35.2689 3.91876C35.2372 3.2334 34.6288 2.72674 33.9117 2.72108C32.6428 2.7109 31.3727 2.72108 30.1027 2.72108C30.0262 2.72702 29.9504 2.74028 29.8765 2.76067V6.77104L35.2791 6.76991Z" fill="#01C5FF"/>
<path d="M13.568 19.0044C13.568 17.2522 13.568 15.5007 13.568 13.75C13.568 12.4969 14.5553 11.8783 15.6727 12.4347C19.1945 14.1899 22.7145 15.9482 26.2325 17.7095C26.7867 17.9854 27.1372 18.3881 27.1316 19.0225C27.1237 19.64 26.7731 20.0291 26.2347 20.296C22.7129 22.0497 19.193 23.808 15.675 25.5708C14.5565 26.1283 13.5703 25.5108 13.568 24.2589C13.5658 22.5081 13.5658 20.7567 13.568 19.0044ZM22.7491 19.0044L16.3027 15.7835V22.2299L22.7491 19.0044Z" fill="#01C5FF"/>
</svg>
