<svg width="20" height="19" viewBox="0 0 20 19" fill="none" xmlns="http://www.w3.org/2000/svg">
<path d="M13.7988 0.874609C13.3988 0.674609 12.9988 0.674609 12.5988 0.874609L4.89883 5.57462H3.29883C1.89883 5.57462 0.798828 6.67462 0.798828 8.07462V11.5746C0.798828 12.9746 1.89883 14.0746 3.29883 14.0746H4.59882L12.5988 18.7746C12.7988 18.8746 12.9988 18.9746 13.1988 18.9746C13.3988 18.9746 13.5988 18.8746 13.7988 18.7746C14.1988 18.5746 14.3988 18.1746 14.3988 17.7746V1.87461C14.3988 1.47461 14.1988 1.07461 13.7988 0.874609ZM4.19882 12.5746H3.29883C2.69883 12.5746 2.29883 12.0746 2.29883 11.5746V8.07462C2.29883 7.47462 2.79883 7.07462 3.29883 7.07462H4.19882V12.5746ZM12.8988 17.2746L5.69882 13.0746V6.87461L12.8988 2.47458V17.2746Z" fill="#D2D3DF"/>
<path d="M16.4988 5.67462C16.0988 5.67462 15.7988 5.97463 15.7988 6.37463V13.9746C15.7988 14.3746 16.0988 14.6746 16.4988 14.6746C16.8988 14.6746 17.1988 14.3746 17.1988 13.9746V6.37463C17.1988 5.97463 16.8988 5.67462 16.4988 5.67462Z" fill="#D2D3DF"/>
<path d="M19.0988 3.17462C18.6988 3.17462 18.3988 3.47463 18.3988 3.87463V16.2747C18.3988 16.6747 18.6988 16.9746 19.0988 16.9746C19.4988 16.9746 19.7988 16.6747 19.7988 16.2747V3.87463C19.7988 3.47463 19.4988 3.17462 19.0988 3.17462Z" fill="#D2D3DF"/>
</svg>
